<svg version="1.1" id="Layer_1" xmlns="http://www.w3.org/2000/svg" xmlns:xlink="http://www.w3.org/1999/xlink" x="0px" y="0px"
	 width="100%" viewBox="0 0 344 266" enable-background="new 0 0 344 266" xml:space="preserve">
<path fill="#F6F1DA" opacity="1.000000" stroke="none" 
	d="
M59.836517,195.909546 
	C57.179752,194.303055 52.701889,195.439087 52.066475,189.988190 
	C54.151711,183.006897 56.087345,176.735001 58.435562,170.621552 
	C59.449543,167.981705 61.316360,165.669403 63.557117,161.941727 
	C65.614265,161.595764 70.060738,161.265594 68.679153,156.918228 
	C70.943604,153.850357 72.437637,151.728577 74.050545,149.701401 
	C74.525940,149.103897 75.389458,148.833252 75.986275,148.311249 
	C78.869888,145.789154 82.699860,143.729156 84.316658,140.550354 
	C85.983002,137.274139 88.195686,136.189346 91.080444,134.810806 
	C93.880043,133.472961 96.796524,131.296677 93.883743,127.170639 
	C96.707619,126.588379 99.242447,126.325249 101.958908,126.357468 
	C102.751144,127.204666 103.565620,127.644020 103.941574,128.325348 
	C109.018196,137.525269 124.466034,143.348145 133.913101,138.820847 
	C140.227463,135.794846 145.979416,131.595245 152.153656,128.209137 
	C155.098923,131.064056 158.179306,133.378174 160.564743,136.266281 
	C163.096024,139.330963 164.967590,142.940521 166.806717,146.380707 
	C165.815109,146.967621 165.144028,147.485931 164.170654,147.960052 
	C163.594742,148.895874 163.321136,149.875931 162.907379,151.224609 
	C158.335083,159.590469 159.279709,163.790024 166.364685,166.050201 
	C169.305893,167.497879 171.882248,168.859772 175.200607,170.613892 
	C175.200607,172.662079 175.200607,175.543365 175.007263,178.670639 
	C174.760300,179.118179 174.706680,179.319748 174.651245,179.534668 
	C174.649414,179.548050 174.607422,179.522415 174.207336,179.497559 
	C166.309372,180.237656 160.343307,184.074768 155.475281,189.442017 
	C154.187958,190.861359 153.546539,194.568054 154.485443,195.853012 
	C155.541595,197.298447 158.818481,197.891632 160.953613,197.594193 
	C164.007812,197.168686 166.922714,195.650223 169.860992,194.505783 
	C175.281174,192.394623 180.341370,192.359589 185.502899,195.708984 
	C188.206558,197.463440 191.593124,198.384201 194.802353,199.042526 
	C196.262146,199.342010 198.551682,198.521255 199.496292,197.395752 
	C200.143127,196.625076 199.576981,194.122192 198.750458,192.968842 
	C196.635361,190.017334 194.451492,186.864670 191.579361,184.777359 
	C188.776428,182.740341 185.087097,181.923035 181.589355,180.386627 
	C181.248260,180.094681 181.104706,179.986374 180.880646,179.642151 
	C180.498535,179.189743 180.182846,179.166367 179.559082,179.091537 
	C178.854736,175.725189 178.444427,172.603394 178.078979,169.822968 
	C181.072327,168.891815 183.149780,168.369232 185.133392,167.603546 
	C189.674759,165.850601 193.452881,163.401245 192.490829,157.618912 
	C192.203796,155.893784 191.522141,154.234283 190.888245,152.355103 
	C190.618820,151.088409 190.482407,150.011368 190.184616,148.620056 
	C189.629562,146.771378 188.397491,144.711472 188.976959,143.786972 
	C193.034149,137.313812 197.696960,131.312927 205.143860,128.304672 
	C211.207733,131.787018 217.079590,134.987900 223.214798,138.466614 
	C225.561890,139.173508 227.647720,139.980377 229.728973,139.968658 
	C240.940948,139.905487 250.064804,135.921356 255.749786,125.416161 
	C256.130707,125.042351 256.376617,124.872803 257.068298,124.880554 
	C259.653717,125.649002 261.852814,126.326462 263.941101,127.370499 
	C261.358856,132.429153 264.347778,134.186600 267.966370,135.936813 
	C269.624115,136.738617 270.802979,138.476151 272.341034,139.593933 
	C274.126648,140.891617 276.068176,141.974854 277.971191,143.513641 
	C279.873871,145.922363 281.747406,147.968582 283.426270,150.340546 
	C283.712250,154.617584 286.568787,154.501892 289.611511,154.596451 
	C289.900299,155.269943 290.047119,155.657516 289.864563,156.231842 
	C287.459778,161.169174 291.049225,161.218475 294.356445,161.893951 
	C295.416656,166.457245 297.438354,170.170166 301.062195,173.365997 
	C303.456970,180.145859 307.672668,186.496307 301.402588,193.179291 
	C300.713989,193.376312 300.340057,193.557434 299.627350,193.695801 
	C298.860291,193.800644 298.431976,193.948242 297.651672,194.031189 
	C295.261902,190.930023 293.224091,187.893539 290.621521,184.015472 
	C292.440063,181.365860 289.779968,179.476761 286.463043,177.950516 
	C284.286072,176.948792 282.591980,176.088303 282.891693,172.906387 
	C283.025909,171.481247 280.846436,168.747421 279.354706,168.454926 
	C273.864807,167.378525 273.476349,160.758667 268.612061,159.298737 
	C266.742279,150.369858 258.865631,150.496033 252.389145,149.040756 
	C250.602615,148.639313 247.337616,150.393097 246.397232,152.077225 
	C245.669800,153.379990 247.000824,156.546524 248.325043,158.120178 
	C250.547272,160.761017 254.203690,162.257431 253.224091,166.848328 
	C253.046844,167.678986 254.769333,169.211639 255.915115,169.961044 
	C257.810303,171.200623 259.949799,172.066681 261.977417,173.085632 
	C259.725464,177.758636 260.176392,178.426041 268.246033,182.607849 
	C266.376251,188.563675 270.905670,189.884445 275.256378,191.736115 
	C273.163452,196.546326 276.113373,198.798248 280.003387,200.268723 
	C283.835175,201.717178 287.776917,202.874817 291.757141,204.555557 
	C291.950165,205.936295 291.951935,206.946411 292.179749,207.902710 
	C293.676758,214.186996 289.677338,218.695999 283.413879,217.740097 
	C281.718689,217.481384 280.023254,217.224258 278.306488,216.963135 
	C277.179382,228.634628 276.582306,229.353699 265.069855,231.104538 
	C260.890076,231.740173 256.628113,231.835251 252.437576,232.174255 
	C250.035538,247.946625 239.269257,252.956512 224.840836,248.280502 
	C223.413986,247.818085 221.079819,248.326431 219.880325,249.280930 
	C210.320038,256.888519 200.415344,258.359741 189.546082,252.078873 
	C188.236160,251.321930 185.945526,252.262177 183.757812,252.496735 
	C180.630753,252.663620 177.395142,253.693008 175.186951,252.615952 
	C171.816513,250.972000 169.394943,251.465439 166.368515,253.008698 
	C157.795975,257.380096 149.239685,257.771637 141.118668,251.820343 
	C138.601486,249.975677 136.098648,248.733826 132.969131,250.088120 
	C132.969131,250.088120 132.555740,249.808197 132.098236,249.405365 
	C129.853622,249.200500 128.068024,249.413620 126.279129,249.593948 
	C114.665543,250.764664 107.411621,246.759796 105.656342,234.842896 
	C104.064735,233.737762 102.564163,232.610001 100.960167,232.436111 
	C97.197235,232.028091 93.363312,232.284729 89.597008,231.895767 
	C82.340538,231.146332 79.515511,227.430389 79.760750,219.993286 
	C79.787262,219.189102 77.854607,217.533035 76.935539,217.605286 
	C66.360802,218.436707 65.729668,218.003326 64.959541,207.601440 
	C66.067978,206.004135 66.879570,204.288559 68.195854,203.698120 
	C71.207825,202.347046 74.485802,201.601303 77.620163,200.507721 
	C81.875343,199.023102 84.490082,196.570114 82.112770,191.785690 
	C89.797386,188.213699 90.253609,187.590942 89.266106,182.331085 
	C97.219528,178.761093 97.219528,178.761093 95.936256,172.709335 
	C104.536118,169.428589 105.628754,168.007095 104.037094,162.346268 
	C106.013107,160.753723 108.152031,159.386536 109.836441,157.592560 
	C112.683784,154.560028 111.621979,150.954758 107.706108,149.559906 
	C103.108704,147.922287 92.931046,150.358276 90.582001,154.896317 
	C88.719711,158.494019 86.593964,161.179352 83.411369,163.456299 
	C81.873161,164.556778 81.160172,167.200287 79.576973,167.773376 
	C75.264984,169.334290 73.190231,171.693436 74.763084,176.299759 
	C71.171677,178.808060 64.517769,178.749954 67.864410,186.482361 
	C60.706287,186.152679 60.049709,190.866882 59.836517,195.909546 
M144.989288,166.342560 
	C144.651962,164.936066 144.314651,163.529556 144.778671,162.265106 
	C145.524246,161.835556 146.269821,161.406006 147.015396,160.976440 
	C146.371231,160.105743 145.887634,158.701462 145.056702,158.451385 
	C139.876373,156.892410 134.682480,155.022797 129.361526,154.422638 
	C126.260986,154.072891 122.915710,155.892960 119.680557,156.736755 
	C119.825439,157.437607 119.970322,158.138443 120.115204,158.839294 
	C121.637360,158.839294 123.159523,158.839294 125.328262,159.134338 
	C126.555840,158.819443 127.783424,158.504562 129.736069,158.022903 
	C133.159027,158.659409 136.581970,159.295914 139.982925,160.661331 
	C139.108383,161.705353 138.233826,162.749359 137.112091,164.088486 
	C138.863403,164.088486 140.423279,164.088486 142.302750,164.088486 
	C141.693192,164.986877 141.343460,165.502335 140.256699,166.081573 
	C139.520111,166.097473 138.783508,166.113373 137.780930,165.673523 
	C137.179321,165.962097 136.577728,166.250656 135.155914,166.769302 
	C130.911819,168.282501 126.667740,169.795715 122.423653,171.308914 
	C122.600777,171.786621 122.777901,172.264328 122.955025,172.742035 
	C130.764526,171.523956 138.574020,170.305878 146.567413,169.059097 
	C146.262085,168.674179 145.627884,167.874619 144.989288,166.342560 
M232.340729,174.340347 
	C227.950195,167.423767 211.918594,163.065277 205.743011,169.530579 
	C207.035522,169.835632 208.178329,170.511688 209.006882,170.237656 
	C216.682831,167.698944 222.773163,171.685822 229.120026,174.816086 
	C229.913574,175.207474 231.052979,174.897568 232.340729,174.340347 
M220.201050,154.695602 
	C216.511978,155.618393 212.822891,156.541199 209.133804,157.464005 
	C209.238663,158.078568 209.343521,158.693146 209.448380,159.307724 
	C217.115799,158.714905 224.783218,158.122101 233.544678,157.444702 
	C229.151382,154.819214 225.340195,153.637192 220.201050,154.695602 
M194.092743,215.331741 
	C190.863419,217.505219 187.634094,219.678680 184.404922,221.852371 
	C187.587814,223.922256 192.444321,222.898819 195.186386,219.218491 
	C197.362869,216.297333 200.841797,213.282913 196.125992,208.654892 
	C195.532455,211.133942 195.091797,212.974533 194.092743,215.331741 
M171.445694,219.943665 
	C170.921432,220.759125 170.397156,221.574585 169.872894,222.390045 
	C170.688980,222.698715 171.507935,223.280106 172.320663,223.271500 
	C177.316544,223.218597 182.852203,218.230438 183.440689,213.157822 
	C183.565323,212.083527 182.876816,210.914917 182.562973,209.789780 
	C181.713486,210.609604 180.273956,211.329010 180.114456,212.266266 
	C179.334595,216.848892 176.563660,219.119659 171.445694,219.943665 
M165.985443,209.856293 
	C165.167633,211.889694 164.328568,213.914902 163.538727,215.959091 
	C162.896042,217.622391 162.312317,219.308472 161.702438,220.984436 
	C162.298843,221.222473 162.895248,221.460495 163.491653,221.698532 
	C165.142258,219.110580 167.132568,216.660965 168.271317,213.864578 
	C168.708694,212.790497 167.205032,210.925980 165.985443,209.856293 
M133.514160,164.431763 
	C133.514160,164.431763 133.563416,164.521851 133.514160,164.431763 
M130.512238,160.438171 
	C130.512238,160.438171 130.558121,160.523300 130.512238,160.438171 
z"/>
<path fill="#C4BEB7" opacity="1.000000" stroke="none" 
	d="
M204.951828,128.023224 
	C197.696960,131.312927 193.034149,137.313812 188.976959,143.786972 
	C188.397491,144.711472 189.629562,146.771378 189.810059,148.647690 
	C187.438370,148.671005 185.679352,145.798615 182.717957,147.917664 
	C176.922928,150.518631 172.229767,146.404877 167.127258,146.312119 
	C164.967590,142.940521 163.096024,139.330963 160.564743,136.266281 
	C158.179306,133.378174 155.098923,131.064056 152.207886,127.816132 
	C150.115448,123.405617 148.139389,119.676392 146.229004,115.577415 
	C141.015884,101.724953 120.094963,92.344704 105.541214,97.839333 
	C103.777992,100.929626 102.394150,103.966820 100.856949,107.274963 
	C100.588150,108.366440 100.472710,109.186958 100.202583,110.436897 
	C100.624359,115.931580 101.200821,120.996849 101.777283,126.062119 
	C99.242447,126.325249 96.707619,126.588379 93.524406,127.048363 
	C88.215523,126.813118 83.522186,125.878677 78.909615,126.180107 
	C76.880295,126.312721 75.094421,129.078094 73.059769,130.441849 
	C68.345078,133.601944 63.237957,136.258804 58.866955,139.826614 
	C54.379589,143.489395 49.771824,146.384888 43.846645,146.910568 
	C42.753136,145.781281 41.791153,144.888245 40.827812,143.589203 
	C40.766243,141.353165 40.706028,139.523132 40.621971,137.660538 
	C40.598133,137.627991 40.583725,137.640869 40.583725,137.640869 
	C40.682358,137.491013 40.780991,137.341171 41.126522,136.795135 
	C42.834068,132.800430 44.294712,129.201920 45.755028,125.561028 
	C45.754696,125.518654 45.929340,125.579651 46.351139,125.731148 
	C48.881836,124.349556 49.852314,122.593170 46.349674,122.085876 
	C42.414513,121.515953 42.154251,118.850471 43.027271,116.352425 
	C45.008781,110.682526 48.528522,106.081917 53.973560,103.361664 
	C53.982597,103.947792 53.991634,104.533920 54.000675,105.120049 
	C56.382355,105.726036 58.764038,106.332024 61.588581,106.958054 
	C76.320869,107.705162 85.773102,100.792297 91.919098,88.343773 
	C96.872269,78.311264 97.445824,67.663475 96.924881,56.391663 
	C96.094498,55.303501 95.374252,54.202564 94.473129,54.026306 
	C90.031006,53.157413 85.540939,52.533581 80.865852,51.549553 
	C77.353226,48.789547 74.080528,46.249962 70.710007,43.847633 
	C69.619293,43.070232 68.271927,42.652924 67.044228,41.754639 
	C66.664833,39.412258 66.283173,37.386135 66.294090,35.269379 
	C70.595901,35.863449 74.762512,35.914368 78.356987,37.374119 
	C84.499512,39.868656 92.374695,39.474171 95.903015,47.187389 
	C96.848488,46.850430 97.976501,46.773449 98.607079,46.173576 
	C105.163986,39.935909 112.788757,35.599655 121.128166,32.081314 
	C135.961197,25.823345 151.274261,21.594297 167.329330,21.236067 
	C180.392731,20.944586 193.484726,21.934116 206.623077,22.363525 
	C206.682114,22.371468 206.781982,22.306503 207.014343,22.528492 
	C208.495041,22.906872 209.743378,23.063263 211.387558,23.421375 
	C228.024597,26.441727 243.470245,31.168087 256.932831,41.260445 
	C258.840363,42.690437 262.377838,43.202332 264.730347,42.560669 
	C273.913422,40.055931 282.923401,36.916595 292.250153,34.051968 
	C292.668030,34.050823 292.833527,34.010921 293.246826,34.119652 
	C293.627899,34.407368 293.761169,34.546452 293.625977,34.871437 
	C292.525116,37.429920 291.692688,39.802494 290.559143,42.097519 
	C289.383759,42.092960 288.238617,41.834740 287.678925,42.292431 
	C283.897186,45.384907 280.239288,48.628876 276.163696,51.892117 
	C271.760162,52.581448 267.693726,53.023933 263.730835,53.922852 
	C262.388977,54.227230 261.308929,55.685677 260.098022,57.109009 
	C260.056183,62.265362 259.538086,66.987854 260.088776,71.582245 
	C261.577515,84.002563 265.496552,95.526489 276.929260,102.287453 
	C281.315857,104.881584 286.810608,106.225006 291.931213,106.686287 
	C294.411926,106.909760 297.189758,103.773575 299.847809,102.183098 
	C300.117065,102.021996 300.488281,102.031212 300.814240,102.289032 
	C300.343842,103.889877 299.871338,105.163071 299.609009,105.869911 
	C301.748596,105.484215 303.879089,105.100159 306.241241,104.976501 
	C309.086517,109.103325 311.940063,112.834106 314.229279,116.883904 
	C315.752777,119.579033 314.823425,121.740120 311.270355,121.910515 
	C307.608154,122.086136 308.116150,123.743225 309.667175,126.054871 
	C311.781677,129.206253 314.473328,132.261383 315.490662,135.771362 
	C316.402771,138.918228 315.384430,142.624603 315.217773,146.084137 
	C312.160095,145.623672 309.102417,145.163208 305.819702,144.428314 
	C301.308197,142.034805 296.993469,139.969513 292.761963,137.745895 
	C292.022522,137.357346 291.671173,136.270660 291.073334,135.563232 
	C290.059021,134.362976 289.128815,133.033813 287.914307,132.073761 
	C285.978058,130.543167 283.852020,129.248856 281.778107,127.897774 
	C280.576569,127.115021 279.298279,125.757103 278.092133,125.796959 
	C273.403870,125.951859 268.730713,126.562737 264.051910,127.003922 
	C261.852814,126.326462 259.653717,125.649002 257.000275,124.569099 
	C256.413971,123.771523 256.281982,123.376389 256.311493,122.537582 
	C256.699310,118.310051 257.785980,114.315903 256.926025,110.797569 
	C255.934921,106.742798 257.875397,101.184547 252.000534,98.538467 
	C248.862823,97.694366 245.979141,96.816269 243.078629,96.756599 
	C221.421402,96.311111 211.428833,110.196579 204.951828,128.023224 
M194.735992,103.269447 
	C190.528763,104.444160 190.885818,107.900902 191.413986,110.905701 
	C191.725433,112.677597 193.446335,115.630684 194.407974,115.581871 
	C196.931946,115.453766 199.917038,114.520027 201.672699,112.824524 
	C202.739853,111.793930 202.676712,108.166008 201.660156,106.765312 
	C200.384995,105.008324 197.613281,104.337479 194.735992,103.269447 
M239.540939,84.136726 
	C238.473770,88.727333 241.270370,91.046516 244.967010,91.952835 
	C246.456924,92.318138 249.825638,90.770798 249.982376,89.736694 
	C250.438049,86.730087 250.774216,82.733543 249.178268,80.618652 
	C246.861877,77.549088 243.533447,79.911423 241.017624,81.939392 
	C240.529572,82.332802 240.211914,82.937599 239.540939,84.136726 
M158.012177,96.464043 
	C154.692184,95.988350 151.993286,97.152084 152.276108,100.682892 
	C152.502670,103.511368 154.204193,106.221710 155.251129,108.984482 
	C157.820709,107.924843 161.020020,107.486740 162.817795,105.665314 
	C165.791122,102.652893 164.256973,99.792374 158.012177,96.464043 
M208.656189,51.171394 
	C207.486740,55.410164 209.635742,58.116623 213.311157,59.091957 
	C215.074371,59.559853 218.912521,58.415035 219.100861,57.463936 
	C219.699692,54.439819 219.025024,51.163528 218.842484,47.984684 
	C216.278168,48.184742 213.691696,48.249317 211.162384,48.663246 
	C210.350250,48.796150 209.689056,49.851322 208.656189,51.171394 
M180.481659,99.286430 
	C181.854294,97.567543 183.996292,96.021637 184.430206,94.091698 
	C185.197876,90.677246 181.347992,87.323044 177.536163,87.371559 
	C172.452988,87.436249 172.840378,91.333237 172.868134,94.516220 
	C172.906754,98.943863 175.366287,100.796127 180.481659,99.286430 
M209.296036,96.594650 
	C212.220825,97.271263 215.082611,97.574417 215.838623,93.668037 
	C216.496201,90.270294 217.448303,85.834579 213.558441,84.605499 
	C211.400589,83.923683 207.277298,86.209816 205.485504,88.361855 
	C202.587250,91.842834 205.647583,94.309174 209.296036,96.594650 
M172.485352,73.923294 
	C176.565292,73.445145 176.451721,70.029297 176.148468,67.501251 
	C175.881760,65.277687 173.721481,61.333210 172.971786,61.463112 
	C170.178955,61.947052 167.013382,63.237099 165.138977,65.280609 
	C163.016602,67.594475 164.755478,70.299820 167.181885,71.896179 
	C168.531357,72.784004 170.192078,73.198738 172.485352,73.923294 
M182.996933,52.211899 
	C183.671555,53.317020 184.151886,54.626457 185.057999,55.488136 
	C187.558182,57.865711 190.586136,58.846603 193.381287,56.308220 
	C195.760071,54.147999 195.290237,47.408382 193.067413,45.733578 
	C190.646698,43.909672 186.019470,45.128750 184.051666,48.239933 
	C183.460114,49.175224 183.279068,50.370144 182.996933,52.211899 
M230.447952,67.013031 
	C226.617172,64.302444 223.642975,66.466820 221.627304,69.313461 
	C220.600906,70.762993 220.415909,74.546104 221.394287,75.318199 
	C223.476898,76.961716 226.969849,78.530449 229.111526,77.815002 
	C230.670044,77.294373 231.122635,73.098877 231.783279,70.470154 
	C231.989456,69.649765 231.265701,68.595673 230.447952,67.013031 
M132.826859,67.410378 
	C132.187073,64.504761 132.665359,60.478611 127.889526,61.122574 
	C124.295197,61.607227 121.041260,63.299366 120.979439,67.554123 
	C120.920219,71.630234 124.050430,73.226517 127.456444,73.829437 
	C131.789276,74.596420 131.979401,71.055710 132.826859,67.410378 
M147.901672,87.320366 
	C151.120453,87.869011 152.881897,86.014091 152.902756,83.253891 
	C152.922638,80.625099 152.610229,77.266373 151.011047,75.622154 
	C150.032059,74.615585 145.873810,75.527832 143.981598,76.812775 
	C139.174652,80.077057 140.439255,83.770683 147.901672,87.320366 
M199.151611,73.358246 
	C197.636398,72.550056 195.698624,70.720055 194.690125,71.137123 
	C192.264420,72.140274 189.860886,73.890213 188.312729,75.979362 
	C187.697372,76.809738 188.866272,80.075836 190.110901,80.913353 
	C192.039413,82.211067 195.290817,83.567207 196.976334,82.771019 
	C200.263184,81.218437 200.564392,77.609612 199.151611,73.358246 
M148.015991,58.925430 
	C150.670029,59.307045 153.576736,59.156143 153.796677,55.973305 
	C153.997360,53.068790 153.267380,49.881618 152.015671,47.264790 
	C151.739105,46.686638 147.191895,47.385704 145.220947,48.538834 
	C140.759262,51.149223 141.667511,55.100204 148.015991,58.925430 
M113.637825,90.486717 
	C117.149567,90.169220 120.153633,88.999832 121.385651,85.342690 
	C122.769890,81.233688 119.511024,79.339935 116.845650,78.341209 
	C115.156219,77.708176 111.067345,78.946465 110.715828,80.133553 
	C109.702293,83.556267 108.925720,87.649818 113.637825,90.486717 
z"/>
<path fill="#442616" opacity="1.000000" stroke="none" 
	d="
M43.978168,147.146820 
	C49.771824,146.384888 54.379589,143.489395 58.866955,139.826614 
	C63.237957,136.258804 68.345078,133.601944 73.059769,130.441849 
	C75.094421,129.078094 76.880295,126.312721 78.909615,126.180107 
	C83.522186,125.878677 88.215523,126.813118 93.235367,127.367493 
	C96.796524,131.296677 93.880043,133.472961 91.080444,134.810806 
	C88.195686,136.189346 85.983002,137.274139 84.316658,140.550354 
	C82.699860,143.729156 78.869888,145.789154 75.986275,148.311249 
	C75.389458,148.833252 74.525940,149.103897 74.050545,149.701401 
	C72.437637,151.728577 70.943604,153.850357 68.679153,156.918228 
	C70.060738,161.265594 65.614265,161.595764 63.557117,161.941727 
	C61.316360,165.669403 59.449543,167.981705 58.435562,170.621552 
	C56.087345,176.735001 54.151711,183.006897 51.978920,189.619141 
	C49.142887,188.551102 48.377285,186.725098 49.775650,183.573105 
	C51.204304,180.352829 51.807377,176.766312 52.725700,173.504105 
	C52.211075,173.027145 51.959602,172.600143 51.733147,172.613022 
	C47.753502,172.839340 42.594414,173.324310 41.428955,169.153168 
	C40.143806,164.553680 39.926945,159.086395 43.647930,154.543121 
	C44.656467,153.311691 48.570343,151.587418 44.365288,148.715759 
	C44.027981,147.977386 44.003075,147.562103 43.978168,147.146820 
z"/>
<path fill="#442715" opacity="1.000000" stroke="none" 
	d="
M60.167984,196.034103 
	C60.049709,190.866882 60.706287,186.152679 67.864410,186.482361 
	C64.517769,178.749954 71.171677,178.808060 74.763084,176.299759 
	C73.190231,171.693436 75.264984,169.334290 79.576973,167.773376 
	C81.160172,167.200287 81.873161,164.556778 83.411369,163.456299 
	C86.593964,161.179352 88.719711,158.494019 90.582001,154.896317 
	C92.931046,150.358276 103.108704,147.922287 107.706108,149.559906 
	C111.621979,150.954758 112.683784,154.560028 109.836441,157.592560 
	C108.152031,159.386536 106.013107,160.753723 104.037094,162.346268 
	C105.628754,168.007095 104.536118,169.428589 95.936256,172.709335 
	C97.219528,178.761093 97.219528,178.761093 89.266106,182.331085 
	C90.253609,187.590942 89.797386,188.213699 82.112770,191.785690 
	C84.490082,196.570114 81.875343,199.023102 77.620163,200.507721 
	C74.485802,201.601303 71.207825,202.347046 68.195854,203.698120 
	C66.879570,204.288559 66.067978,206.004135 64.616302,207.606033 
	C63.522072,208.013885 62.838737,208.024460 62.155403,208.035034 
	C62.740757,204.749359 63.326115,201.463684 63.981094,197.787216 
	C63.084278,197.367722 61.791866,196.763184 60.167984,196.034103 
z"/>
<path fill="#432715" opacity="1.000000" stroke="none" 
	d="
M291.670410,204.160065 
	C287.776917,202.874817 283.835175,201.717178 280.003387,200.268723 
	C276.113373,198.798248 273.163452,196.546326 275.256378,191.736115 
	C270.905670,189.884445 266.376251,188.563675 268.246033,182.607849 
	C260.176392,178.426041 259.725464,177.758636 261.977417,173.085632 
	C259.949799,172.066681 257.810303,171.200623 255.915115,169.961044 
	C254.769333,169.211639 253.046844,167.678986 253.224091,166.848328 
	C254.203690,162.257431 250.547272,160.761017 248.325043,158.120178 
	C247.000824,156.546524 245.669800,153.379990 246.397232,152.077225 
	C247.337616,150.393097 250.602615,148.639313 252.389145,149.040756 
	C258.865631,150.496033 266.742279,150.369858 268.612061,159.298737 
	C273.476349,160.758667 273.864807,167.378525 279.354706,168.454926 
	C280.846436,168.747421 283.025909,171.481247 282.891693,172.906387 
	C282.591980,176.088303 284.286072,176.948792 286.463043,177.950516 
	C289.779968,179.476761 292.440063,181.365860 290.621521,184.015472 
	C293.224091,187.893539 295.261902,190.930023 297.593567,194.333771 
	C296.595856,195.488373 295.304291,196.275726 294.012756,197.063080 
	C293.977539,198.523148 293.942322,199.983231 293.638367,201.967224 
	C292.803192,203.047455 292.236786,203.603760 291.670410,204.160065 
z"/>
<path fill="#452F21" opacity="1.000000" stroke="none" 
	d="
M206.564041,22.355583 
	C193.484726,21.934116 180.392731,20.944586 167.329330,21.236067 
	C151.274261,21.594297 135.961197,25.823345 121.128166,32.081314 
	C112.788757,35.599655 105.163986,39.935909 98.607079,46.173576 
	C97.976501,46.773449 96.848488,46.850430 95.903015,47.187389 
	C92.374695,39.474171 84.499512,39.868656 78.356987,37.374119 
	C74.762512,35.914368 70.595901,35.863449 65.945816,35.110893 
	C63.478741,34.828037 61.752529,34.613037 59.594559,34.311028 
	C55.438042,34.565075 51.713284,34.906136 47.620529,35.175087 
	C44.870266,36.504002 42.488003,37.905025 40.071697,39.020721 
	C39.808865,38.239197 39.580074,37.743000 39.351280,37.246807 
	C44.092735,30.916059 51.461014,31.382914 57.830551,31.432051 
	C65.487831,31.491121 73.196747,33.414104 80.750488,35.118637 
	C85.261894,36.136650 89.448364,38.528904 93.922455,39.808388 
	C95.883049,40.369072 98.859352,40.533913 100.244003,39.443287 
	C109.628006,32.051952 120.554810,28.220327 131.660141,24.465521 
	C142.978531,20.638676 154.462143,18.011000 166.392563,17.893528 
	C177.086014,17.788240 187.815613,15.685493 198.495438,18.833338 
	C202.183365,19.920341 206.275864,19.634777 210.326675,20.267883 
	C209.167877,21.158247 207.865967,21.756914 206.564041,22.355583 
z"/>
<path fill="#453022" opacity="1.000000" stroke="none" 
	d="
M291.757141,204.555573 
	C292.236786,203.603760 292.803192,203.047455 293.595093,202.297272 
	C297.740417,206.921707 296.246094,211.788284 293.685822,216.459351 
	C291.262970,220.879776 287.142426,221.614227 282.589844,220.552490 
	C280.302094,230.342361 277.754150,232.702255 268.086517,234.011551 
	C265.481323,234.364380 262.753296,235.138168 260.262939,234.696533 
	C256.630341,234.052383 255.236832,236.076462 254.435822,238.653198 
	C249.724854,253.807632 240.908340,254.141235 227.550354,252.322556 
	C225.621353,252.059952 223.194550,252.189377 221.615173,253.150909 
	C211.117218,259.542236 200.541855,261.956665 189.130737,255.395493 
	C188.164215,254.839752 186.163055,256.083466 184.312393,256.226868 
	C184.024612,254.780258 184.067017,253.598022 184.109421,252.415802 
	C185.945526,252.262177 188.236160,251.321930 189.546082,252.078873 
	C200.415344,258.359741 210.320038,256.888519 219.880325,249.280930 
	C221.079819,248.326431 223.413986,247.818085 224.840836,248.280502 
	C239.269257,252.956512 250.035538,247.946625 252.437576,232.174255 
	C256.628113,231.835251 260.890076,231.740173 265.069855,231.104538 
	C276.582306,229.353699 277.179382,228.634628 278.306488,216.963135 
	C280.023254,217.224258 281.718689,217.481384 283.413879,217.740097 
	C289.677338,218.695999 293.676758,214.186996 292.179749,207.902710 
	C291.951935,206.946411 291.950165,205.936295 291.757141,204.555573 
z"/>
<path fill="#442616" opacity="1.000000" stroke="none" 
	d="
M301.011902,172.994858 
	C297.438354,170.170166 295.416656,166.457245 294.355743,161.488800 
	C293.998291,159.220306 293.998291,157.452881 293.998291,155.289963 
	C292.355865,155.615967 291.274902,155.830536 290.193939,156.045105 
	C290.047119,155.657516 289.900299,155.269943 289.961121,154.433044 
	C292.065155,153.832047 294.298126,154.268982 295.792480,153.414337 
	C299.714172,151.171417 302.586578,152.039093 306.012939,155.411850 
	C306.012939,152.933945 306.012939,150.456024 306.347107,147.985245 
	C307.455872,148.322739 308.230469,148.653107 309.113037,149.196655 
	C309.411560,149.677811 309.660950,149.868958 309.973145,150.236633 
	C309.985168,150.658691 309.993225,150.827423 310.114502,151.211014 
	C310.428101,151.692795 310.684723,151.884399 311.141144,152.296707 
	C312.211517,153.374847 313.138275,154.156982 314.065063,154.939117 
	C314.065063,154.939117 314.058624,154.957947 314.144897,155.186081 
	C314.415466,155.698486 314.665619,155.901688 314.981628,156.023788 
	C315.326019,157.730728 315.670410,159.437668 315.968475,161.914215 
	C315.295288,167.808014 313.107422,172.059692 307.310486,170.533646 
	C303.846252,169.621704 303.064728,172.179825 301.011902,172.994858 
z"/>
<path fill="#493527" opacity="1.000000" stroke="none" 
	d="
M38.998241,37.343391 
	C39.580074,37.743000 39.808865,38.239197 39.903206,39.324471 
	C38.546349,43.601227 36.196945,47.320953 36.300747,50.970913 
	C36.704464,65.166519 41.419418,78.237946 48.965961,90.179573 
	C52.647324,96.004951 57.062634,101.366508 61.145721,106.938011 
	C58.764038,106.332024 56.382355,105.726036 54.000675,105.120049 
	C53.991634,104.533920 53.982597,103.947792 53.973560,103.361664 
	C48.528522,106.081917 45.008781,110.682526 43.027271,116.352425 
	C42.154251,118.850471 42.414513,121.515953 46.349674,122.085876 
	C49.852314,122.593170 48.881836,124.349556 46.271816,125.431122 
	C45.154865,125.022980 44.539040,125.066368 43.923210,125.109756 
	C39.831585,122.530174 38.432133,117.768227 41.068031,113.251770 
	C43.689781,108.759560 46.919704,104.622284 49.885529,100.325615 
	C46.140556,92.689575 41.718849,84.811134 38.346809,76.506470 
	C34.248543,66.413261 32.602016,55.695564 34.308174,44.827015 
	C34.720188,42.202404 37.145641,39.893860 38.998241,37.343391 
z"/>
<path fill="#4A3428" opacity="1.000000" stroke="none" 
	d="
M306.009613,104.716095 
	C303.879089,105.100159 301.748596,105.484215 299.609009,105.869911 
	C299.871338,105.163071 300.343842,103.889877 301.024414,102.023575 
	C302.375488,100.143806 303.518524,98.857155 304.728455,97.922012 
	C304.846741,98.503098 304.898071,98.732651 304.830963,99.028450 
	C304.819550,99.077934 304.926575,99.061180 305.187805,98.867477 
	C305.141418,98.290970 304.940796,97.891418 304.792206,97.154236 
	C309.373230,87.438583 314.934479,78.398003 318.141418,68.587807 
	C321.358398,58.746834 324.344208,47.980133 316.168579,38.440418 
	C316.052460,38.304886 316.572479,37.624153 316.890381,37.094307 
	C316.985168,36.990734 317.177002,36.785656 317.177002,36.785656 
	C323.122253,39.524727 324.904236,44.829529 324.856140,50.644173 
	C324.746429,63.899391 320.606049,76.063652 313.962952,87.464996 
	C311.523193,91.652321 309.399017,96.023544 306.741730,100.706108 
	C306.238251,102.306259 306.123932,103.511177 306.009613,104.716095 
z"/>
<path fill="#412A21" opacity="1.000000" stroke="none" 
	d="
M206.623077,22.363525 
	C207.865967,21.756914 209.167877,21.158247 210.721039,20.303272 
	C219.318634,22.229439 227.783295,24.049063 235.970886,26.718452 
	C241.691437,28.583504 247.046707,31.581659 252.532562,34.143463 
	C253.702042,34.689590 255.019547,35.313156 255.774109,36.285118 
	C259.038544,40.490150 262.774872,40.773067 267.743317,37.997192 
	C268.970276,37.603207 269.507141,37.269100 270.044006,36.934998 
	C272.482330,36.060104 274.920685,35.185207 277.789978,34.327759 
	C278.469452,34.203873 278.717987,34.062531 278.966522,33.921192 
	C278.966522,33.921192 279.010986,33.974922 279.387634,33.980858 
	C281.508301,33.628666 283.252350,33.270535 284.996399,32.912399 
	C285.096649,32.599552 285.285309,32.354855 286.018311,32.352959 
	C288.634308,32.044548 290.794373,31.561483 292.954437,31.078415 
	C293.464020,30.823065 293.973602,30.567720 294.831818,30.558857 
	C296.452484,31.873047 297.724579,32.940754 298.577148,34.097252 
	C296.736603,34.352535 295.315491,34.519035 293.894409,34.685535 
	C293.761169,34.546452 293.627899,34.407368 293.148804,33.970169 
	C292.534607,33.785778 292.266174,33.899494 291.997742,34.013214 
	C282.923401,36.916595 273.913422,40.055931 264.730347,42.560669 
	C262.377838,43.202332 258.840363,42.690437 256.932831,41.260445 
	C243.470245,31.168087 228.024597,26.441727 211.219666,23.145870 
	C209.364609,22.547930 208.073288,22.427216 206.781982,22.306503 
	C206.781982,22.306503 206.682114,22.371468 206.623077,22.363525 
z"/>
<path fill="#453025" opacity="1.000000" stroke="none" 
	d="
M306.241241,104.976501 
	C306.123932,103.511177 306.238251,102.306259 306.648376,101.049858 
	C310.972839,104.840424 315.441071,108.170166 317.533447,113.800446 
	C318.792053,117.187004 319.268066,120.646080 317.049408,122.935448 
	C313.746887,126.343262 315.541016,128.608002 317.134186,131.648392 
	C318.633209,134.509094 320.369354,137.809250 320.197632,140.812958 
	C320.045532,143.473816 317.802460,146.374054 315.759430,148.460770 
	C313.938324,150.320862 312.645447,151.691696 314.078644,154.578506 
	C313.138275,154.156982 312.211517,153.374847 311.027771,152.081970 
	C310.570892,151.303757 310.314392,151.112061 310.001282,150.996140 
	C309.993225,150.827423 309.985168,150.658691 309.869812,150.021240 
	C309.567108,149.286926 309.314636,149.097244 309.005096,148.983459 
	C308.230469,148.653107 307.455872,148.322739 306.348022,147.576782 
	C306.024780,146.341705 306.034760,145.522217 306.044739,144.702744 
	C309.102417,145.163208 312.160095,145.623672 315.217773,146.084137 
	C315.384430,142.624603 316.402771,138.918228 315.490662,135.771362 
	C314.473328,132.261383 311.781677,129.206253 309.667175,126.054871 
	C308.116150,123.743225 307.608154,122.086136 311.270355,121.910515 
	C314.823425,121.740120 315.752777,119.579033 314.229279,116.883904 
	C311.940063,112.834106 309.086517,109.103325 306.241241,104.976501 
z"/>
<path fill="#4A3628" opacity="1.000000" stroke="none" 
	d="
M62.092285,208.468689 
	C62.838737,208.024460 63.522072,208.013885 64.548645,207.998718 
	C65.729668,218.003326 66.360802,218.436707 76.935539,217.605286 
	C77.854607,217.533035 79.787262,219.189102 79.760750,219.993286 
	C79.515511,227.430389 82.340538,231.146332 89.597008,231.895767 
	C93.363312,232.284729 97.197235,232.028091 100.960167,232.436111 
	C102.564163,232.610001 104.064735,233.737762 105.327965,234.725052 
	C103.265968,234.835907 101.488319,234.653763 99.625999,234.462967 
	C99.800819,235.587860 99.901077,236.232941 100.001335,236.878036 
	C93.244995,235.049652 86.439590,233.375366 79.776604,231.253830 
	C78.546890,230.862289 77.554375,228.775711 77.048676,227.271072 
	C76.171715,224.661835 76.009171,222.129868 72.250122,221.543381 
	C62.825253,220.072922 61.663525,218.380081 62.092285,208.468689 
z"/>
<path fill="#4A3627" opacity="1.000000" stroke="none" 
	d="
M183.757812,252.496735 
	C184.067017,253.598022 184.024612,254.780258 183.975800,256.306366 
	C181.948257,256.999023 179.307770,258.333221 178.016159,257.521362 
	C173.132172,254.451569 168.834137,256.397980 164.089874,257.644897 
	C155.647003,259.863861 147.101578,260.110260 139.188461,255.534546 
	C137.026154,254.284210 135.289749,252.297348 133.163513,250.368286 
	C136.098648,248.733826 138.601486,249.975677 141.118668,251.820343 
	C149.239685,257.771637 157.795975,257.380096 166.368515,253.008698 
	C169.394943,251.465439 171.816513,250.972000 175.186951,252.615952 
	C177.395142,253.693008 180.630753,252.663620 183.757812,252.496735 
z"/>
<path fill="#463223" opacity="1.000000" stroke="none" 
	d="
M301.062195,173.365997 
	C303.064728,172.179825 303.846252,169.621704 307.310486,170.533646 
	C313.107422,172.059692 315.295288,167.808014 315.970367,162.302612 
	C318.559387,168.904953 317.488403,170.088242 305.198669,173.556137 
	C307.699432,180.472839 310.649109,187.562408 305.156708,194.374741 
	C302.422913,197.765503 298.737335,198.441299 294.327911,197.175522 
	C295.304291,196.275726 296.595856,195.488373 297.945557,194.398438 
	C298.431976,193.948242 298.860291,193.800644 299.663025,194.000397 
	C300.325562,194.617096 300.613617,194.886459 300.901672,195.155823 
	C301.173523,194.491684 301.445404,193.827545 301.717255,193.163406 
	C307.672668,186.496307 303.456970,180.145859 301.062195,173.365997 
z"/>
<path fill="#4C382B" opacity="1.000000" stroke="none" 
	d="
M100.369133,236.948639 
	C99.901077,236.232941 99.800819,235.587860 99.625999,234.462967 
	C101.488319,234.653763 103.265968,234.835907 105.372009,235.135895 
	C107.411621,246.759796 114.665543,250.764664 126.279129,249.593948 
	C128.068024,249.413620 129.853622,249.200500 131.855606,249.346710 
	C130.854889,250.702469 129.720444,252.459061 128.410187,252.601791 
	C121.212685,253.385849 113.722084,254.263870 108.006706,248.476364 
	C106.068848,246.514038 105.484932,243.268951 104.022514,240.761566 
	C103.201637,239.354141 101.849640,238.256470 100.369133,236.948639 
z"/>
<path fill="#473324" opacity="1.000000" stroke="none" 
	d="
M298.996643,34.008461 
	C297.724579,32.940754 296.452484,31.873047 295.108215,30.488693 
	C299.338959,30.726460 303.747009,30.878962 307.910339,31.967421 
	C311.021881,32.780899 313.817688,34.802052 316.965546,36.535545 
	C317.177002,36.785656 316.985168,36.990734 316.485046,37.074818 
	C310.322144,36.108757 304.659393,35.058609 298.996643,34.008461 
z"/>
<path fill="#493527" opacity="1.000000" stroke="none" 
	d="
M45.755356,125.603401 
	C44.294712,129.201920 42.834068,132.800430 41.144341,136.526627 
	C37.786278,135.367126 39.767681,133.542221 40.477699,131.936615 
	C41.317646,130.037201 42.311440,128.205795 44.013832,126.086121 
	C45.111191,125.752686 45.433273,125.678047 45.755356,125.603401 
z"/>
<path fill="#493527" opacity="1.000000" stroke="none" 
	d="
M40.645813,137.693085 
	C40.706028,139.523132 40.766243,141.353165 40.483269,143.591400 
	C39.452072,144.001221 38.764061,144.002853 38.076046,144.004471 
	C38.094620,142.591446 38.113194,141.178421 38.470818,139.187805 
	C39.421848,138.304504 40.033833,137.998795 40.645813,137.693085 
z"/>
<path fill="#4C372D" opacity="1.000000" stroke="none" 
	d="
M38.047600,144.355011 
	C38.764061,144.002853 39.452072,144.001221 40.484627,143.997406 
	C41.791153,144.888245 42.753136,145.781281 43.846645,146.910568 
	C44.003075,147.562103 44.027981,147.977386 44.044624,148.704895 
	C42.011368,147.606812 38.232079,148.644760 38.047600,144.355011 
z"/>
<path fill="#473324" opacity="1.000000" stroke="none" 
	d="
M292.559662,31.012039 
	C290.794373,31.561483 288.634308,32.044548 286.237427,32.266575 
	C288.055359,31.652246 290.110107,31.298954 292.559662,31.012039 
z"/>
<path fill="#473324" opacity="1.000000" stroke="none" 
	d="
M284.591858,32.936104 
	C283.252350,33.270535 281.508301,33.628666 279.354828,33.969078 
	C280.692688,33.620838 282.440002,33.290321 284.591858,32.936104 
z"/>
<path fill="#4C372D" opacity="1.000000" stroke="none" 
	d="
M40.621971,137.660538 
	C40.033833,137.998795 39.421848,138.304504 38.509911,138.765808 
	C38.727036,138.382446 39.244114,137.843491 40.172459,137.472687 
	C40.583725,137.640869 40.598133,137.627991 40.621971,137.660538 
z"/>
<path fill="#4C372D" opacity="1.000000" stroke="none" 
	d="
M45.755028,125.561028 
	C45.433273,125.678047 45.111191,125.752686 44.294674,125.882591 
	C43.800240,125.937866 43.900005,125.529060 43.911606,125.319412 
	C44.539040,125.066368 45.154865,125.022980 45.850018,125.279617 
	C45.929340,125.579651 45.754696,125.518654 45.755028,125.561028 
z"/>
<path fill="#473324" opacity="1.000000" stroke="none" 
	d="
M269.706055,36.909443 
	C269.507141,37.269100 268.970276,37.603207 268.097168,37.925838 
	C268.296661,37.570873 268.832367,37.227383 269.706055,36.909443 
z"/>
<path fill="#473324" opacity="1.000000" stroke="none" 
	d="
M278.727844,33.937244 
	C278.717987,34.062531 278.469452,34.203873 278.120850,34.197880 
	C278.020782,34.050549 278.489197,33.953297 278.727844,33.937244 
z"/>
<path fill="#453025" opacity="1.000000" stroke="none" 
	d="
M314.910889,155.781555 
	C314.665619,155.901688 314.415466,155.698486 314.135712,155.188782 
	C314.306885,155.155334 314.573547,155.347336 314.910889,155.781555 
z"/>
<path fill="#452713" opacity="1.000000" stroke="none" 
	d="
M205.143860,128.304672 
	C211.428833,110.196579 221.421402,96.311111 243.078629,96.756599 
	C245.979141,96.816269 248.862823,97.694366 251.731781,98.686623 
	C251.457077,99.497200 251.204910,99.814621 250.507965,100.049942 
	C245.522675,99.967842 240.982162,99.967842 235.204727,99.967842 
	C245.223969,104.173309 248.256851,110.542725 246.447617,121.991730 
	C246.053650,122.656960 245.836578,123.184235 245.608078,123.723572 
	C245.596649,123.735641 245.575165,123.757484 245.336319,123.956070 
	C235.950531,134.769745 224.782410,132.754257 218.616730,124.044395 
	C217.016388,121.783699 216.397491,118.828239 214.799805,114.890579 
	C214.443665,118.446465 213.192551,121.415054 214.165649,123.096146 
	C216.603180,127.307053 220.048355,130.934677 223.078476,135.220581 
	C223.028885,136.492859 222.990158,137.340836 222.951431,138.188797 
	C217.079590,134.987900 211.207733,131.787018 205.143860,128.304672 
z"/>
<path fill="#462916" opacity="1.000000" stroke="none" 
	d="
M179.853104,179.336090 
	C180.182846,179.166367 180.498535,179.189743 180.926865,179.802704 
	C181.192184,180.528564 181.436630,180.652252 181.786896,180.570267 
	C185.087097,181.923035 188.776428,182.740341 191.579361,184.777359 
	C194.451492,186.864670 196.635361,190.017334 198.750458,192.968842 
	C199.576981,194.122192 200.143127,196.625076 199.496292,197.395752 
	C198.551682,198.521255 196.262146,199.342010 194.802353,199.042526 
	C191.593124,198.384201 188.206558,197.463440 185.502899,195.708984 
	C180.341370,192.359589 175.281174,192.394623 169.860992,194.505783 
	C166.922714,195.650223 164.007812,197.168686 160.953613,197.594193 
	C158.818481,197.891632 155.541595,197.298447 154.485443,195.853012 
	C153.546539,194.568054 154.187958,190.861359 155.475281,189.442017 
	C160.343307,184.074768 166.309372,180.237656 174.360718,179.665405 
	C175.034393,179.933029 175.154556,180.007919 175.274734,180.082809 
	C175.067520,179.895630 174.860306,179.708466 174.653076,179.521301 
	C174.706680,179.319748 174.760300,179.118179 175.493317,179.083588 
	C177.399506,179.279068 178.626312,179.307587 179.853104,179.336090 
z"/>
<path fill="#402413" opacity="1.000000" stroke="none" 
	d="
M305.819702,144.428314 
	C306.034760,145.522217 306.024780,146.341705 306.013855,147.569641 
	C306.012939,150.456024 306.012939,152.933945 306.012939,155.411850 
	C302.586578,152.039093 299.714172,151.171417 295.792480,153.414337 
	C294.298126,154.268982 292.065155,153.832047 289.819183,154.147125 
	C286.568787,154.501892 283.712250,154.617584 283.746490,150.255142 
	C290.113373,147.531021 290.113373,147.531021 284.791473,140.137634 
	C282.894928,140.244766 281.413635,139.990662 280.267731,140.496445 
	C279.291992,140.927124 278.702423,142.232651 277.942017,143.151154 
	C276.068176,141.974854 274.126648,140.891617 272.341034,139.593933 
	C270.802979,138.476151 269.624115,136.738617 267.966370,135.936813 
	C264.347778,134.186600 261.358856,132.429153 263.941101,127.370499 
	C268.730713,126.562737 273.403870,125.951859 278.092133,125.796959 
	C279.298279,125.757103 280.576569,127.115021 281.778107,127.897774 
	C283.852020,129.248856 285.978058,130.543167 287.914307,132.073761 
	C289.128815,133.033813 290.059021,134.362976 291.073334,135.563232 
	C291.671173,136.270660 292.022522,137.357346 292.761963,137.745895 
	C296.993469,139.969513 301.308197,142.034805 305.819702,144.428314 
M296.269257,142.908371 
	C294.367188,141.879181 292.465118,140.849991 289.784973,139.399796 
	C290.490448,141.506226 291.516388,143.104919 291.427765,144.639221 
	C291.285675,147.099319 290.752319,149.176132 294.444824,148.326462 
	C297.609344,147.598267 298.776703,146.038086 297.244995,142.897507 
	C297.163208,142.931473 297.081421,142.965424 296.269257,142.908371 
M287.270538,137.479233 
	C287.378265,136.935577 287.486023,136.391922 287.593781,135.848282 
	C287.203979,135.842453 286.814209,135.836624 286.424438,135.830780 
	C286.516937,136.377365 286.609436,136.923965 287.270538,137.479233 
z"/>
<path fill="#483019" opacity="1.000000" stroke="none" 
	d="
M101.958908,126.357468 
	C101.200821,120.996849 100.624359,115.931580 100.490395,110.359695 
	C100.958694,108.903389 100.984489,107.953697 101.010292,107.004005 
	C102.394150,103.966820 103.777992,100.929626 105.558502,98.216400 
	C105.974815,99.043251 105.994453,99.546135 105.773788,100.344559 
	C104.968735,102.678619 104.476181,104.740456 103.826820,106.751671 
	C100.917007,115.764061 103.718849,125.485016 111.077713,131.297195 
	C112.145317,132.131668 113.013641,132.720322 114.133408,133.566284 
	C119.629547,136.452576 125.021477,137.522522 131.044632,135.315033 
	C142.385712,129.527374 144.540756,125.942276 143.279022,116.103622 
	C144.514587,116.028313 145.338959,115.987747 146.163330,115.947174 
	C148.139389,119.676392 150.115448,123.405617 152.037277,127.527840 
	C145.979416,131.595245 140.227463,135.794846 133.913101,138.820847 
	C124.466034,143.348145 109.018196,137.525269 103.941574,128.325348 
	C103.565620,127.644020 102.751144,127.204666 101.958908,126.357468 
z"/>
<path fill="#E8BD87" opacity="1.000000" stroke="none" 
	d="
M183.130081,147.977951 
	C185.679352,145.798615 187.438370,148.671005 189.971436,148.961945 
	C190.482407,150.011368 190.618820,151.088409 190.571228,152.555618 
	C189.922165,154.615356 189.457092,156.284958 188.987091,157.972214 
	C182.165192,156.372498 181.707062,156.892105 183.626465,165.018707 
	C179.275864,165.289658 175.019043,165.623917 170.756393,165.735565 
	C170.203201,165.750061 169.619934,164.615936 169.320099,163.775696 
	C171.805115,157.744797 171.469742,157.238083 165.411652,157.163498 
	C164.934189,157.157639 164.458130,157.036972 163.999649,156.992844 
	C164.017868,157.016037 164.055527,157.061401 163.956482,156.644928 
	C163.587463,154.437622 163.317505,152.646790 163.047546,150.855972 
	C163.321136,149.875931 163.594742,148.895874 164.338989,148.352539 
	C168.862686,149.944748 172.865540,151.657089 176.989258,152.028854 
	C179.162064,152.224762 182.901749,152.033020 183.130081,147.977951 
z"/>
<path fill="#492D17" opacity="1.000000" stroke="none" 
	d="
M169.050598,164.013855 
	C169.619934,164.615936 170.203201,165.750061 170.756393,165.735565 
	C175.019043,165.623917 179.275864,165.289658 183.626465,165.018707 
	C181.707062,156.892105 182.165192,156.372498 188.987091,157.972214 
	C189.457092,156.284958 189.922165,154.615356 190.704254,152.745239 
	C191.522141,154.234283 192.203796,155.893784 192.490829,157.618912 
	C193.452881,163.401245 189.674759,165.850601 185.133392,167.603546 
	C183.149780,168.369232 181.072327,168.891815 178.078979,169.822968 
	C178.444427,172.603394 178.854736,175.725189 179.559082,179.091537 
	C178.626312,179.307587 177.399506,179.279068 175.686661,178.837616 
	C175.200607,175.543365 175.200607,172.662079 175.200607,170.613892 
	C171.882248,168.859772 169.305893,167.497879 166.432770,165.711777 
	C167.107513,164.862991 168.079056,164.438416 169.050598,164.013855 
z"/>
<path fill="#503A1F" opacity="1.000000" stroke="none" 
	d="
M223.214798,138.466614 
	C222.990158,137.340836 223.028885,136.492859 223.479172,135.244080 
	C234.558670,139.513824 245.438446,134.777725 250.300568,126.819839 
	C251.291473,125.635567 252.043411,124.650940 252.976257,123.947372 
	C253.749344,124.470001 254.341537,124.711571 255.085022,125.102753 
	C255.236343,125.252357 255.555283,125.534111 255.555283,125.534111 
	C250.064804,135.921356 240.940948,139.905487 229.728973,139.968658 
	C227.647720,139.980377 225.561890,139.173508 223.214798,138.466614 
z"/>
<path fill="#4E3B26" opacity="1.000000" stroke="none" 
	d="
M232.186432,174.626480 
	C231.052979,174.897568 229.913574,175.207474 229.120026,174.816086 
	C222.773163,171.685822 216.682831,167.698944 209.006882,170.237656 
	C208.178329,170.511688 207.035522,169.835632 205.743011,169.530579 
	C211.918594,163.065277 227.950195,167.423767 232.186432,174.626480 
z"/>
<path fill="#56422E" opacity="1.000000" stroke="none" 
	d="
M140.004929,159.932419 
	C136.581970,159.295914 133.159027,158.659409 128.998474,158.007370 
	C127.067818,158.274323 125.874748,158.556808 124.681686,158.839294 
	C123.159523,158.839294 121.637360,158.839294 120.115204,158.839294 
	C119.970322,158.138443 119.825439,157.437607 119.680557,156.736755 
	C122.915710,155.892960 126.260986,154.072891 129.361526,154.422638 
	C134.682480,155.022797 139.876373,156.892410 145.056702,158.451385 
	C145.887634,158.701462 146.371231,160.105743 147.015396,160.976440 
	C146.269821,161.406006 145.524246,161.835556 144.246216,161.882629 
	C142.477478,160.977570 141.241211,160.454987 140.004929,159.932419 
z"/>
<path fill="#4A2A15" opacity="1.000000" stroke="none" 
	d="
M169.320099,163.775696 
	C168.079056,164.438416 167.107513,164.862991 166.067902,165.625992 
	C159.279709,163.790024 158.335083,159.590469 162.907394,151.224609 
	C163.317505,152.646790 163.587463,154.437622 163.790100,156.587097 
	C163.808975,156.953720 163.895203,156.961685 163.981430,156.969650 
	C164.458130,157.036972 164.934189,157.157639 165.411652,157.163498 
	C171.469742,157.238083 171.805115,157.744797 169.320099,163.775696 
z"/>
<path fill="#4D3A25" opacity="1.000000" stroke="none" 
	d="
M138.046921,166.129288 
	C138.783508,166.113373 139.520111,166.097473 140.858337,166.325500 
	C142.637878,166.737976 143.815781,166.906509 144.993683,167.075058 
	C145.627884,167.874619 146.262085,168.674179 146.567413,169.059097 
	C138.574020,170.305878 130.764526,171.523956 122.955025,172.742035 
	C122.777901,172.264328 122.600777,171.786621 122.423653,171.308914 
	C126.667740,169.795715 130.911819,168.282501 135.842865,166.727341 
	C137.035507,166.500015 137.541214,166.314651 138.046921,166.129288 
z"/>
<path fill="#533F2A" opacity="1.000000" stroke="none" 
	d="
M220.592224,154.530624 
	C225.340195,153.637192 229.151382,154.819214 233.544678,157.444702 
	C224.783218,158.122101 217.115799,158.714905 209.448380,159.307724 
	C209.343521,158.693146 209.238663,158.078568 209.133804,157.464005 
	C212.822891,156.541199 216.511978,155.618393 220.592224,154.530624 
z"/>
<path fill="#442616" opacity="1.000000" stroke="none" 
	d="
M277.971191,143.513641 
	C278.702423,142.232651 279.291992,140.927124 280.267731,140.496445 
	C281.413635,139.990662 282.894928,140.244766 284.791473,140.137634 
	C290.113373,147.531021 290.113373,147.531021 283.941162,149.929382 
	C281.747406,147.968582 279.873871,145.922363 277.971191,143.513641 
z"/>
<path fill="#513F2B" opacity="1.000000" stroke="none" 
	d="
M194.371948,215.073425 
	C195.091797,212.974533 195.532455,211.133942 196.125992,208.654892 
	C200.841797,213.282913 197.362869,216.297333 195.186386,219.218491 
	C192.444321,222.898819 187.587814,223.922256 184.404846,221.852264 
	C187.634094,219.678680 190.863419,217.505219 194.371948,215.073425 
z"/>
<path fill="#4E3D27" opacity="1.000000" stroke="none" 
	d="
M171.839294,219.925598 
	C176.563660,219.119659 179.334595,216.848892 180.114456,212.266266 
	C180.273956,211.329010 181.713486,210.609604 182.562958,209.789764 
	C182.876816,210.914917 183.565323,212.083527 183.440689,213.157822 
	C182.852203,218.230438 177.316544,223.218597 172.320663,223.271500 
	C171.507935,223.280106 170.688980,222.698715 169.872894,222.390045 
	C170.397156,221.574585 170.921432,220.759125 171.839294,219.925598 
z"/>
<path fill="#4A3018" opacity="1.000000" stroke="none" 
	d="
M182.717957,147.917664 
	C182.901749,152.033020 179.162064,152.224762 176.989258,152.028854 
	C172.865540,151.657089 168.862686,149.944748 164.641296,148.396744 
	C165.144028,147.485931 165.815109,146.967621 166.806717,146.380707 
	C172.229767,146.404877 176.922928,150.518631 182.717957,147.917664 
z"/>
<path fill="#594832" opacity="1.000000" stroke="none" 
	d="
M166.285645,209.638947 
	C167.205032,210.925980 168.708694,212.790497 168.271317,213.864578 
	C167.132568,216.660965 165.142258,219.110580 163.491653,221.698532 
	C162.895248,221.460495 162.298843,221.222473 161.702438,220.984436 
	C162.312317,219.308472 162.896042,217.622391 163.538727,215.959091 
	C164.328568,213.914902 165.167633,211.889694 166.285645,209.638947 
z"/>
<path fill="#EFE9D0" opacity="1.000000" stroke="none" 
	d="
M144.991486,166.708801 
	C143.815781,166.906509 142.637878,166.737976 141.226852,166.293610 
	C141.343460,165.502335 141.693192,164.986877 142.302750,164.088486 
	C140.423279,164.088486 138.863403,164.088486 137.112091,164.088486 
	C138.233826,162.749359 139.108383,161.705353 139.993927,160.296875 
	C141.241211,160.454987 142.477478,160.977570 143.845551,161.811615 
	C144.314651,163.529556 144.651962,164.936066 144.991486,166.708801 
z"/>
<path fill="#402413" opacity="1.000000" stroke="none" 
	d="
M289.864563,156.231827 
	C291.274902,155.830536 292.355865,155.615967 293.998291,155.289963 
	C293.998291,157.452881 293.998291,159.220306 293.998993,161.392883 
	C291.049225,161.218475 287.459778,161.169174 289.864563,156.231827 
M292.435211,157.486557 
	C292.435211,157.486557 292.520538,157.440582 292.435211,157.486557 
z"/>
<path fill="#EFE9D0" opacity="1.000000" stroke="none" 
	d="
M125.004974,158.986816 
	C125.874748,158.556808 127.067818,158.274323 128.635941,158.090759 
	C127.783424,158.504562 126.555840,158.819443 125.004974,158.986816 
z"/>
<path fill="#523F24" opacity="1.000000" stroke="none" 
	d="
M256.150024,122.981255 
	C256.281982,123.376389 256.413971,123.771523 256.613953,124.478111 
	C256.376617,124.872803 256.130707,125.042351 255.749786,125.416161 
	C255.555283,125.534111 255.236343,125.252357 255.119431,124.855560 
	C255.385025,123.966263 255.767517,123.473755 256.150024,122.981255 
z"/>
<path fill="#EFE9D0" opacity="1.000000" stroke="none" 
	d="
M137.913925,165.901398 
	C137.541214,166.314651 137.035507,166.500015 136.252960,166.612305 
	C136.577728,166.250656 137.179321,165.962097 137.913925,165.901398 
z"/>
<path fill="#432715" opacity="1.000000" stroke="none" 
	d="
M301.402588,193.179291 
	C301.445404,193.827545 301.173523,194.491684 300.901672,195.155823 
	C300.613617,194.886459 300.325562,194.617096 300.001831,194.043152 
	C300.340057,193.557434 300.713989,193.376312 301.402588,193.179291 
z"/>
<path fill="#492D17" opacity="1.000000" stroke="none" 
	d="
M181.589355,180.386627 
	C181.436630,180.652252 181.192184,180.528564 181.007355,180.038635 
	C181.104706,179.986374 181.248260,180.094681 181.589355,180.386627 
z"/>
<path fill="#492D17" opacity="1.000000" stroke="none" 
	d="
M174.651245,179.534668 
	C174.860306,179.708466 175.067520,179.895630 175.274734,180.082809 
	C175.154556,180.007919 175.034393,179.933029 174.760818,179.690277 
	C174.607422,179.522415 174.649414,179.548050 174.651245,179.534668 
z"/>
<path fill="#EFE9D0" opacity="1.000000" stroke="none" 
	d="
M133.538788,164.476807 
	C133.563416,164.521851 133.514160,164.431763 133.538788,164.476807 
z"/>
<path fill="#EFE9D0" opacity="1.000000" stroke="none" 
	d="
M130.535187,160.480743 
	C130.558121,160.523300 130.512238,160.438171 130.535187,160.480743 
z"/>
<path fill="#F6F1DA" opacity="1.000000" stroke="none" 
	d="
M298.577148,34.097252 
	C304.659393,35.058609 310.322144,36.108757 316.390259,37.178391 
	C316.572479,37.624153 316.052460,38.304886 316.168579,38.440418 
	C324.344208,47.980133 321.358398,58.746834 318.141418,68.587807 
	C314.934479,78.398003 309.373230,87.438583 304.789948,97.195969 
	C304.735687,97.575325 304.661530,97.570496 304.661530,97.570496 
	C303.518524,98.857155 302.375488,100.143806 301.022339,101.695923 
	C300.488281,102.031212 300.117065,102.021996 299.847809,102.183098 
	C297.189758,103.773575 294.411926,106.909760 291.931213,106.686287 
	C286.810608,106.225006 281.315857,104.881584 276.929260,102.287453 
	C265.496552,95.526489 261.577515,84.002563 260.088776,71.582245 
	C259.538086,66.987854 260.056183,62.265362 260.547943,57.185238 
	C267.006561,55.847450 273.004059,54.925716 279.339203,53.897827 
	C281.145142,53.175713 282.613434,52.559753 284.128540,52.358250 
	C285.071167,53.682301 285.823456,55.095875 286.891724,55.400253 
	C289.385803,56.110878 292.281067,55.752563 294.556030,56.811100 
	C297.750519,58.297470 300.529694,60.676300 303.455658,62.652588 
	C304.437866,58.110771 300.417969,53.539822 294.763123,52.975540 
	C291.171692,52.617161 287.570709,52.354324 284.030121,51.706398 
	C286.344238,48.301128 288.602264,45.238098 290.860291,42.175064 
	C291.692688,39.802494 292.525116,37.429920 293.625977,34.871437 
	C295.315491,34.519035 296.736603,34.352535 298.577148,34.097252 
M288.838226,71.141861 
	C290.187042,74.272491 291.535828,77.403122 293.377625,81.678024 
	C295.579498,75.387856 293.429657,70.485466 289.108368,68.131653 
	C286.955566,63.249874 283.087524,60.931797 277.881958,61.108501 
	C276.559845,61.153374 275.277130,62.358643 274.798126,62.606117 
	C279.743866,65.371269 284.260193,67.896355 288.838226,71.141861 
z"/>
<path fill="#F6F1DA" opacity="1.000000" stroke="none" 
	d="
M61.588581,106.958054 
	C57.062634,101.366508 52.647324,96.004951 48.965961,90.179573 
	C41.419418,78.237946 36.704464,65.166519 36.300747,50.970913 
	C36.196945,47.320953 38.546349,43.601227 39.937248,39.609802 
	C42.488003,37.905025 44.870266,36.504002 47.688805,35.522385 
	C52.193462,41.108528 56.625103,38.374546 61.015617,36.534096 
	C60.685810,35.822346 60.356064,35.110191 60.026314,34.398033 
	C61.752529,34.613037 63.478741,34.828037 65.553238,35.201523 
	C66.283173,37.386135 66.664833,39.412258 66.980774,42.117920 
	C69.257576,45.861347 71.600098,48.925243 73.584885,52.284874 
	C68.514565,53.058701 63.726913,53.172726 59.111965,54.124329 
	C55.056057,54.960659 52.850876,59.885090 55.075623,62.730721 
	C58.682861,57.364990 63.640587,54.980755 70.081596,55.888977 
	C73.007256,56.301510 74.174881,54.729504 74.198669,52.063839 
	C76.133316,52.909161 77.737404,53.599243 79.664108,54.536438 
	C85.641708,55.457420 91.296669,56.131294 96.951637,56.805168 
	C97.445824,67.663475 96.872269,78.311264 91.919098,88.343773 
	C85.773102,100.792297 76.320869,107.705162 61.588581,106.958054 
M64.992622,71.529808 
	C64.094131,74.195908 63.195641,76.862000 62.297150,79.528099 
	C63.013134,79.793343 63.729118,80.058578 64.445099,80.323822 
	C65.149109,78.900253 65.917671,77.504524 66.545692,76.048180 
	C68.945587,70.482918 71.086678,64.751213 78.799850,64.903191 
	C79.988602,64.926628 81.201569,63.721371 83.616791,62.441113 
	C72.548439,61.375404 69.302704,63.048344 64.992622,71.529808 
z"/>
<path fill="#442513" opacity="1.000000" stroke="none" 
	d="
M106.014099,100.049026 
	C105.994453,99.546135 105.974815,99.043251 105.937881,98.163300 
	C120.094963,92.344704 141.015884,101.724953 146.229004,115.577415 
	C145.338959,115.987747 144.514587,116.028313 143.306946,116.097214 
	C142.923660,116.125542 142.884781,116.165466 142.884552,115.831970 
	C142.257233,114.998772 141.630142,114.499077 140.952728,113.689377 
	C140.263931,112.775269 139.625473,112.171158 138.987015,111.567055 
	C140.315765,117.639160 139.176163,122.103592 132.716156,123.561737 
	C132.824570,125.633247 132.908997,127.246223 132.768494,129.117081 
	C131.357422,130.056854 130.171280,130.738739 128.555527,131.339081 
	C123.878166,130.124039 119.630409,128.990524 115.230087,127.573837 
	C114.430191,126.741165 113.782852,126.191666 113.086273,125.288544 
	C106.620995,115.238327 110.979149,105.137497 121.605255,100.049026 
	C115.910637,100.049026 110.962364,100.049026 106.014099,100.049026 
z"/>
<path fill="#462F1F" opacity="1.000000" stroke="none" 
	d="
M195.111725,103.233658 
	C197.613281,104.337479 200.384995,105.008324 201.660156,106.765312 
	C202.676712,108.166008 202.739853,111.793930 201.672699,112.824524 
	C199.917038,114.520027 196.931946,115.453766 194.407974,115.581871 
	C193.446335,115.630684 191.725433,112.677597 191.413986,110.905701 
	C190.885818,107.900902 190.528763,104.444160 195.111725,103.233658 
z"/>
<path fill="#442C1C" opacity="1.000000" stroke="none" 
	d="
M239.678314,83.790810 
	C240.211914,82.937599 240.529572,82.332802 241.017624,81.939392 
	C243.533447,79.911423 246.861877,77.549088 249.178268,80.618652 
	C250.774216,82.733543 250.438049,86.730087 249.982376,89.736694 
	C249.825638,90.770798 246.456924,92.318138 244.967010,91.952835 
	C241.270370,91.046516 238.473770,88.727333 239.678314,83.790810 
z"/>
<path fill="#442B1A" opacity="1.000000" stroke="none" 
	d="
M158.373535,96.583939 
	C164.256973,99.792374 165.791122,102.652893 162.817795,105.665314 
	C161.020020,107.486740 157.820709,107.924843 155.251129,108.984482 
	C154.204193,106.221710 152.502670,103.511368 152.276108,100.682892 
	C151.993286,97.152084 154.692184,95.988350 158.373535,96.583939 
z"/>
<path fill="#472B1D" opacity="1.000000" stroke="none" 
	d="
M208.807495,50.827972 
	C209.689056,49.851322 210.350250,48.796150 211.162384,48.663246 
	C213.691696,48.249317 216.278168,48.184742 218.842468,47.984684 
	C219.025024,51.163528 219.699692,54.439819 219.100861,57.463936 
	C218.912521,58.415035 215.074371,59.559853 213.311157,59.091957 
	C209.635742,58.116623 207.486740,55.410164 208.807495,50.827972 
z"/>
<path fill="#452A1D" opacity="1.000000" stroke="none" 
	d="
M180.138306,99.467987 
	C175.366287,100.796127 172.906754,98.943863 172.868134,94.516220 
	C172.840378,91.333237 172.452988,87.436249 177.536163,87.371559 
	C181.347992,87.323044 185.197876,90.677246 184.430206,94.091698 
	C183.996292,96.021637 181.854294,97.567543 180.138306,99.467987 
z"/>
<path fill="#432919" opacity="1.000000" stroke="none" 
	d="
M208.973450,96.381851 
	C205.647583,94.309174 202.587250,91.842834 205.485504,88.361855 
	C207.277298,86.209816 211.400589,83.923683 213.558441,84.605499 
	C217.448303,85.834579 216.496201,90.270294 215.838623,93.668037 
	C215.082611,97.574417 212.220825,97.271263 208.973450,96.381851 
z"/>
<path fill="#472E1F" opacity="1.000000" stroke="none" 
	d="
M172.098938,73.874985 
	C170.192078,73.198738 168.531357,72.784004 167.181885,71.896179 
	C164.755478,70.299820 163.016602,67.594475 165.138977,65.280609 
	C167.013382,63.237099 170.178955,61.947052 172.971786,61.463112 
	C173.721481,61.333210 175.881760,65.277687 176.148468,67.501251 
	C176.451721,70.029297 176.565292,73.445145 172.098938,73.874985 
z"/>
<path fill="#452B1B" opacity="1.000000" stroke="none" 
	d="
M182.953445,51.829014 
	C183.279068,50.370144 183.460114,49.175224 184.051666,48.239933 
	C186.019470,45.128750 190.646698,43.909672 193.067413,45.733578 
	C195.290237,47.408382 195.760071,54.147999 193.381287,56.308220 
	C190.586136,58.846603 187.558182,57.865711 185.057999,55.488136 
	C184.151886,54.626457 183.671555,53.317020 182.953445,51.829014 
z"/>
<path fill="#452C1D" opacity="1.000000" stroke="none" 
	d="
M230.707794,67.330795 
	C231.265701,68.595673 231.989456,69.649765 231.783279,70.470154 
	C231.122635,73.098877 230.670044,77.294373 229.111526,77.815002 
	C226.969849,78.530449 223.476898,76.961716 221.394287,75.318199 
	C220.415909,74.546104 220.600906,70.762993 221.627304,69.313461 
	C223.642975,66.466820 226.617172,64.302444 230.707794,67.330795 
z"/>
<path fill="#462C1C" opacity="1.000000" stroke="none" 
	d="
M132.750183,67.802750 
	C131.979401,71.055710 131.789276,74.596420 127.456444,73.829437 
	C124.050430,73.226517 120.920219,71.630234 120.979439,67.554123 
	C121.041260,63.299366 124.295197,61.607227 127.889526,61.122574 
	C132.665359,60.478611 132.187073,64.504761 132.750183,67.802750 
z"/>
<path fill="#432719" opacity="1.000000" stroke="none" 
	d="
M147.547241,87.244598 
	C140.439255,83.770683 139.174652,80.077057 143.981598,76.812775 
	C145.873810,75.527832 150.032059,74.615585 151.011047,75.622154 
	C152.610229,77.266373 152.922638,80.625099 152.902756,83.253891 
	C152.881897,86.014091 151.120453,87.869011 147.547241,87.244598 
z"/>
<path fill="#422A1A" opacity="1.000000" stroke="none" 
	d="
M199.253647,73.755478 
	C200.564392,77.609612 200.263184,81.218437 196.976334,82.771019 
	C195.290817,83.567207 192.039413,82.211067 190.110901,80.913353 
	C188.866272,80.075836 187.697372,76.809738 188.312729,75.979362 
	C189.860886,73.890213 192.264420,72.140274 194.690125,71.137123 
	C195.698624,70.720055 197.636398,72.550056 199.253647,73.755478 
z"/>
<path fill="#432919" opacity="1.000000" stroke="none" 
	d="
M147.635345,58.819462 
	C141.667511,55.100204 140.759262,51.149223 145.220947,48.538834 
	C147.191895,47.385704 151.739105,46.686638 152.015671,47.264790 
	C153.267380,49.881618 153.997360,53.068790 153.796677,55.973305 
	C153.576736,59.156143 150.670029,59.307045 147.635345,58.819462 
z"/>
<path fill="#452B1C" opacity="1.000000" stroke="none" 
	d="
M113.280121,90.390579 
	C108.925720,87.649818 109.702293,83.556267 110.715828,80.133553 
	C111.067345,78.946465 115.156219,77.708176 116.845650,78.341209 
	C119.511024,79.339935 122.769890,81.233688 121.385651,85.342690 
	C120.153633,88.999832 117.149567,90.169220 113.280121,90.390579 
z"/>
<path fill="#3E270F" opacity="1.000000" stroke="none" 
	d="
M256.311493,122.537582 
	C255.767517,123.473755 255.385025,123.966263 254.968109,124.705948 
	C254.341537,124.711571 253.749344,124.470001 253.058289,123.560059 
	C253.367569,119.594170 253.775726,116.296654 254.315186,112.896011 
	C254.600006,112.440735 254.494507,112.176064 254.050507,111.580444 
	C252.964935,107.485352 251.958847,103.808693 250.952759,100.132034 
	C251.204910,99.814621 251.457077,99.497200 251.977997,99.031616 
	C257.875397,101.184547 255.934921,106.742798 256.926025,110.797569 
	C257.785980,114.315903 256.699310,118.310051 256.311493,122.537582 
z"/>
<path fill="#4B3727" opacity="1.000000" stroke="none" 
	d="
M279.001587,54.003983 
	C273.004059,54.925716 267.006561,55.847450 260.559143,56.692955 
	C261.308929,55.685677 262.388977,54.227230 263.730835,53.922852 
	C267.693726,53.023933 271.760162,52.581448 276.526215,51.966034 
	C277.844788,52.649120 278.423187,53.326550 279.001587,54.003983 
z"/>
<path fill="#4A3524" opacity="1.000000" stroke="none" 
	d="
M73.942619,51.989136 
	C71.600098,48.925243 69.257576,45.861347 66.978508,42.434174 
	C68.271927,42.652924 69.619293,43.070232 70.710007,43.847633 
	C74.080528,46.249962 77.353226,48.789547 80.784889,51.937656 
	C80.384407,53.162758 79.862946,53.726040 79.341484,54.289322 
	C77.737404,53.599243 76.133316,52.909161 74.205032,52.095329 
	C73.880821,51.971577 73.942619,51.989136 73.942619,51.989136 
z"/>
<path fill="#4F3E2E" opacity="1.000000" stroke="none" 
	d="
M279.339203,53.897827 
	C278.423187,53.326550 277.844788,52.649120 276.903870,51.897766 
	C280.239288,48.628876 283.897186,45.384907 287.678925,42.292431 
	C288.238617,41.834740 289.383759,42.092960 290.559143,42.097519 
	C288.602264,45.238098 286.344238,48.301128 284.062531,51.685814 
	C284.038849,52.007473 284.081757,51.943790 284.081757,51.943790 
	C282.613434,52.559753 281.145142,53.175713 279.339203,53.897827 
z"/>
<path fill="#493626" opacity="1.000000" stroke="none" 
	d="
M79.664108,54.536438 
	C79.862946,53.726040 80.384407,53.162758 80.986832,52.211372 
	C85.540939,52.533581 90.031006,53.157413 94.473129,54.026306 
	C95.374252,54.202564 96.094498,55.303501 96.924881,56.391663 
	C91.296669,56.131294 85.641708,55.457420 79.664108,54.536438 
z"/>
<path fill="#452F21" opacity="1.000000" stroke="none" 
	d="
M207.014343,22.528492 
	C208.073288,22.427216 209.364609,22.547930 210.823822,22.944149 
	C209.743378,23.063263 208.495041,22.906872 207.014343,22.528492 
z"/>
<path fill="#49351D" opacity="1.000000" stroke="none" 
	d="
M100.856934,107.274963 
	C100.984489,107.953697 100.958694,108.903389 100.645081,109.930283 
	C100.472710,109.186958 100.588150,108.366440 100.856934,107.274963 
z"/>
<path fill="#473324" opacity="1.000000" stroke="none" 
	d="
M292.250153,34.051971 
	C292.266174,33.899494 292.534607,33.785778 292.901062,33.821537 
	C292.833527,34.010921 292.668030,34.050823 292.250153,34.051971 
z"/>
<path fill="#F1E9D0" opacity="1.000000" stroke="none" 
	d="
M59.594559,34.311024 
	C60.356064,35.110191 60.685810,35.822346 61.015617,36.534096 
	C56.625103,38.374546 52.193462,41.108528 48.056801,35.594494 
	C51.713284,34.906136 55.438042,34.565075 59.594559,34.311024 
z"/>
<path fill="#402413" opacity="1.000000" stroke="none" 
	d="
M310.114502,151.211014 
	C310.314392,151.112061 310.570892,151.303757 310.884155,151.785980 
	C310.684723,151.884399 310.428101,151.692795 310.114502,151.211014 
z"/>
<path fill="#402413" opacity="1.000000" stroke="none" 
	d="
M309.113037,149.196655 
	C309.314636,149.097244 309.567108,149.286926 309.865845,149.767899 
	C309.660950,149.868958 309.411560,149.677811 309.113037,149.196655 
z"/>
<path fill="#453025" opacity="1.000000" stroke="none" 
	d="
M304.949402,98.962212 
	C304.898071,98.732651 304.846741,98.503098 304.728455,97.922012 
	C304.661530,97.570496 304.735687,97.575325 304.737946,97.533600 
	C304.940796,97.891418 305.141418,98.290970 305.168274,98.845375 
	C304.994537,99.000229 304.949402,98.962212 304.949402,98.962212 
z"/>
<path fill="#453025" opacity="1.000000" stroke="none" 
	d="
M305.014069,99.022324 
	C304.926575,99.061180 304.819550,99.077934 304.830963,99.028450 
	C304.949402,98.962212 304.994537,99.000229 305.014069,99.022324 
z"/>
<path fill="#EADFA4" opacity="1.000000" stroke="none" 
	d="
M250.061630,127.019493 
	C245.438446,134.777725 234.558670,139.513824 223.490021,134.819763 
	C220.048355,130.934677 216.603180,127.307053 214.165649,123.096146 
	C213.192551,121.415054 214.443665,118.446465 214.799805,114.890579 
	C216.397491,118.828239 217.016388,121.783699 218.616730,124.044395 
	C224.782410,132.754257 235.950531,134.769745 245.661591,124.327972 
	C247.504349,125.340691 248.782990,126.180092 250.061630,127.019493 
z"/>
<path fill="#EEE4A6" opacity="1.000000" stroke="none" 
	d="
M250.300568,126.819839 
	C248.782990,126.180092 247.504349,125.340691 245.900436,124.129395 
	C245.575165,123.757484 245.596649,123.735641 245.990234,123.793655 
	C246.464050,123.185699 246.544281,122.519730 246.624512,121.853760 
	C248.256851,110.542725 245.223969,104.173309 235.204727,99.967842 
	C240.982162,99.967842 245.522675,99.967842 250.507965,100.049942 
	C251.958847,103.808693 252.964935,107.485352 253.988068,111.834564 
	C254.064697,112.671127 254.124298,112.835129 254.183899,112.999138 
	C253.775726,116.296654 253.367569,119.594170 252.877380,123.278999 
	C252.043411,124.650940 251.291473,125.635567 250.300568,126.819839 
z"/>
<path fill="#EADFA4" opacity="1.000000" stroke="none" 
	d="
M246.447617,121.991730 
	C246.544281,122.519730 246.464050,123.185699 246.001678,123.781586 
	C245.836578,123.184235 246.053650,122.656960 246.447617,121.991730 
z"/>
<path fill="#442616" opacity="1.000000" stroke="none" 
	d="
M297.001221,143.000610 
	C298.776703,146.038086 297.609344,147.598267 294.444824,148.326462 
	C290.752319,149.176132 291.285675,147.099319 291.427765,144.639221 
	C291.516388,143.104919 290.490448,141.506226 289.784973,139.399796 
	C292.465118,140.849991 294.367188,141.879181 296.634644,142.954193 
	C297.000000,143.000000 297.001221,143.000610 297.001221,143.000610 
z"/>
<path fill="#442616" opacity="1.000000" stroke="none" 
	d="
M286.986237,137.474899 
	C286.609436,136.923965 286.516937,136.377365 286.424438,135.830780 
	C286.814209,135.836624 287.203979,135.842453 287.593781,135.848267 
	C287.486023,136.391922 287.378265,136.935577 286.986237,137.474899 
z"/>
<path fill="#442616" opacity="1.000000" stroke="none" 
	d="
M296.999817,142.999695 
	C297.081421,142.965424 297.163208,142.931473 297.123108,142.949066 
	C297.001221,143.000610 297.000000,143.000000 296.999817,142.999695 
z"/>
<path fill="#EFE4A6" opacity="1.000000" stroke="none" 
	d="
M105.773788,100.344559 
	C110.962364,100.049026 115.910637,100.049026 121.605255,100.049026 
	C110.979149,105.137497 106.620995,115.238327 113.100891,125.662781 
	C113.904053,126.879440 114.643356,127.368233 115.382660,127.857018 
	C119.630409,128.990524 123.878166,130.124039 128.565262,131.727051 
	C129.575775,133.253021 130.146927,134.309525 130.718094,135.366013 
	C125.021477,137.522522 119.629547,136.452576 114.114021,133.194366 
	C112.854935,132.060577 111.866692,131.555984 110.878441,131.051392 
	C103.718849,125.485016 100.917007,115.764061 103.826820,106.751671 
	C104.476181,104.740456 104.968735,102.678619 105.773788,100.344559 
z"/>
<path fill="#E8DEA1" opacity="1.000000" stroke="none" 
	d="
M131.044632,135.315033 
	C130.146927,134.309525 129.575775,133.253021 128.994873,131.808578 
	C130.171280,130.738739 131.357422,130.056854 133.092194,129.040131 
	C137.968887,125.647667 141.762665,122.271004 141.386719,116.161865 
	C142.083145,116.118942 142.483963,116.142204 142.884781,116.165466 
	C142.884781,116.165466 142.923660,116.125542 142.895752,116.131943 
	C144.540756,125.942276 142.385712,129.527374 131.044632,135.315033 
z"/>
<path fill="#E8DEA1" opacity="1.000000" stroke="none" 
	d="
M111.077713,131.297195 
	C111.866692,131.555984 112.854935,132.060577 113.862579,132.937073 
	C113.013641,132.720322 112.145317,132.131668 111.077713,131.297195 
z"/>
<path fill="#E8BD87" opacity="1.000000" stroke="none" 
	d="
M163.999649,156.992844 
	C163.895203,156.961685 163.808975,156.953720 163.889130,157.003586 
	C164.055527,157.061401 164.017868,157.016037 163.999649,156.992844 
z"/>
<path fill="#442616" opacity="1.000000" stroke="none" 
	d="
M292.477875,157.463562 
	C292.520538,157.440582 292.435211,157.486557 292.477875,157.463562 
z"/>
<path fill="#54422E" opacity="1.000000" stroke="none" 
	d="
M284.006439,52.028053 
	C287.570709,52.354324 291.171692,52.617161 294.763123,52.975540 
	C300.417969,53.539822 304.437866,58.110771 303.455658,62.652588 
	C300.529694,60.676300 297.750519,58.297470 294.556030,56.811100 
	C292.281067,55.752563 289.385803,56.110878 286.891724,55.400253 
	C285.823456,55.095875 285.071167,53.682301 284.128540,52.358250 
	C284.081757,51.943790 284.038849,52.007473 284.006439,52.028053 
z"/>
<path fill="#584630" opacity="1.000000" stroke="none" 
	d="
M288.776550,70.421432 
	C284.260193,67.896355 279.743866,65.371269 274.798126,62.606117 
	C275.277130,62.358643 276.559845,61.153374 277.881958,61.108501 
	C283.087524,60.931797 286.955566,63.249874 289.022797,68.885597 
	C288.883698,69.900162 288.830139,70.160789 288.776550,70.421432 
z"/>
<path fill="#533E29" opacity="1.000000" stroke="none" 
	d="
M288.807373,70.781647 
	C288.830139,70.160789 288.883698,69.900162 288.994446,69.244553 
	C293.429657,70.485466 295.579498,75.387856 293.377625,81.678024 
	C291.535828,77.403122 290.187042,74.272491 288.807373,70.781647 
z"/>
<path fill="#462F1C" opacity="1.000000" stroke="none" 
	d="
M65.148293,71.194580 
	C69.302704,63.048344 72.548439,61.375404 83.616791,62.441113 
	C81.201569,63.721371 79.988602,64.926628 78.799850,64.903191 
	C71.086678,64.751213 68.945587,70.482918 66.545692,76.048180 
	C65.917671,77.504524 65.149109,78.900253 64.445099,80.323822 
	C63.729118,80.058578 63.013134,79.793343 62.297150,79.528099 
	C63.195641,76.862000 64.094131,74.195908 65.148293,71.194580 
z"/>
<path fill="#56432E" opacity="1.000000" stroke="none" 
	d="
M73.874466,51.940086 
	C74.174881,54.729504 73.007256,56.301510 70.081596,55.888977 
	C63.640587,54.980755 58.682861,57.364990 55.075623,62.730721 
	C52.850876,59.885090 55.056057,54.960659 59.111965,54.124329 
	C63.726913,53.172726 68.514565,53.058701 73.584885,52.284874 
	C73.942619,51.989136 73.880821,51.971577 73.874466,51.940086 
z"/>
<path fill="#462D0F" opacity="1.000000" stroke="none" 
	d="
M141.091125,116.228043 
	C141.762665,122.271004 137.968887,125.647667 133.317123,128.782257 
	C132.908997,127.246223 132.824570,125.633247 132.716156,123.561737 
	C139.176163,122.103592 140.315765,117.639160 138.987015,111.567055 
	C139.625473,112.171158 140.263931,112.775269 140.954330,114.061279 
	C141.034561,115.238136 141.062836,115.733086 141.091125,116.228043 
z"/>
<path fill="#483019" opacity="1.000000" stroke="none" 
	d="
M141.386719,116.161865 
	C141.062836,115.733086 141.034561,115.238136 141.004669,114.371284 
	C141.630142,114.499077 142.257233,114.998772 142.884552,115.831970 
	C142.483963,116.142204 142.083145,116.118942 141.386719,116.161865 
z"/>
<path fill="#E8DEA1" opacity="1.000000" stroke="none" 
	d="
M115.230087,127.573837 
	C114.643356,127.368233 113.904053,126.879440 113.150131,126.016411 
	C113.782852,126.191666 114.430191,126.741165 115.230087,127.573837 
z"/>
<path fill="#523F24" opacity="1.000000" stroke="none" 
	d="
M254.315186,112.896011 
	C254.124298,112.835129 254.064697,112.671127 254.067551,112.252998 
	C254.494507,112.176064 254.600006,112.440735 254.315186,112.896011 
z"/>
</svg>