<svg xmlns="http://www.w3.org/2000/svg" width="100%" viewBox="0 0 344 266" height="150" xmlns:v="https://vecta.io/nano"><path fill="#f6f1da" d="M59.837 195.91c-2.657-1.606-7.135-.47-7.77-5.921 2.085-6.981 4.021-13.253 6.369-19.367 1.014-2.64 2.881-4.952 5.122-8.68 2.057-.346 6.504-.676 5.122-5.023l5.371-7.217c.475-.598 1.339-.868 1.936-1.39 2.884-2.522 6.714-4.582 8.33-7.761 1.666-3.276 3.879-4.361 6.764-5.74 2.8-1.338 5.716-3.514 2.803-7.64 2.824-.582 5.359-.845 8.075-.813.792.847 1.607 1.287 1.983 1.968 5.077 9.2 20.524 15.023 29.972 10.495 6.314-3.026 12.066-7.226 18.241-10.612 2.945 2.855 6.026 5.169 8.411 8.057 2.531 3.065 4.403 6.674 6.242 10.114-.992.587-1.663 1.105-2.636 1.579-.576.936-.85 1.916-1.263 3.265-4.572 8.366-3.628 12.565 3.457 14.826 2.941 1.448 5.518 2.81 8.836 4.564 0 2.048 0 4.929-.193 8.057-.247.448-.301.649-.356.864-.002.013-.044-.012-.444-.037-7.898.74-13.864 4.577-18.732 9.944-1.287 1.419-1.929 5.126-.99 6.411 1.056 1.445 4.333 2.039 6.468 1.741 3.054-.426 5.969-1.944 8.907-3.088 5.42-2.111 10.48-2.146 15.642 1.203 2.704 1.754 6.09 2.675 9.299 3.334 1.46.299 3.749-.521 4.694-1.647.647-.771.081-3.274-.746-4.427-2.115-2.952-4.299-6.104-7.171-8.191-2.803-2.037-6.492-2.854-9.99-4.391-.341-.292-.485-.4-.709-.744-.382-.452-.698-.476-1.322-.551-.704-3.366-1.115-6.488-1.48-9.269 2.993-.931 5.071-1.454 7.054-2.219 4.541-1.753 8.319-4.202 7.357-9.985-.287-1.725-.969-3.385-1.603-5.264-.269-1.267-.406-2.344-.704-3.735-.555-1.849-1.787-3.909-1.208-4.833 4.057-6.473 8.72-12.474 16.167-15.482l18.071 10.162c2.347.707 4.433 1.514 6.514 1.502 11.212-.063 20.336-4.047 26.021-14.552.381-.374.627-.543 1.319-.536 2.585.768 4.785 1.446 6.873 2.49-2.582 5.059.407 6.816 4.025 8.566 1.658.802 2.837 2.539 4.375 3.657 1.786 1.298 3.727 2.381 5.63 3.92 1.903 2.409 3.776 4.455 5.455 6.827.286 4.277 3.143 4.161 6.185 4.256.289.673.436 1.061.253 1.635-2.405 4.937 1.185 4.987 4.492 5.662 1.06 4.563 3.082 8.276 6.706 11.472 2.395 6.78 6.61 13.13.34 19.813-.689.197-1.063.378-1.775.517-.767.105-1.195.252-1.976.335-2.39-3.101-4.428-6.138-7.03-10.016 1.819-2.65-.842-4.539-4.158-6.065-2.177-1.002-3.871-1.862-3.571-5.044.134-1.425-2.045-4.159-3.537-4.451-5.49-1.076-5.878-7.696-10.743-9.156-1.87-8.929-9.746-8.803-16.223-10.258-1.787-.401-5.052 1.352-5.992 3.036-.727 1.303.604 4.469 1.928 6.043 2.222 2.641 5.879 4.137 4.899 8.728-.177.831 1.545 2.363 2.691 3.113 1.895 1.24 4.035 2.106 6.062 3.125-2.252 4.673-1.801 5.34 6.269 9.522-1.87 5.956 2.66 7.277 7.01 9.128-2.093 4.81.857 7.062 4.747 8.533 3.832 1.448 7.774 2.606 11.754 4.287.193 1.381.195 2.391.423 3.347 1.497 6.284-2.502 10.793-8.766 9.837l-5.107-.777c-1.127 11.671-1.724 12.391-13.237 14.141-4.18.636-8.442.731-12.632 1.07-2.402 15.772-13.168 20.782-27.597 16.106-1.427-.462-3.761.046-4.961 1-9.56 7.608-19.465 9.079-30.334 2.798-1.31-.757-3.601.183-5.788.418-3.127.167-6.363 1.196-8.571.119-3.37-1.644-5.792-1.151-8.818.393-8.573 4.371-17.129 4.763-25.25-1.188-2.517-1.845-5.02-3.087-8.15-1.732 0 0-.413-.28-.871-.683-2.245-.205-4.03.008-5.819.189-11.614 1.171-18.868-2.834-20.623-14.751-1.592-1.105-3.092-2.233-4.696-2.407-3.763-.408-7.597-.151-11.363-.54-7.256-.749-10.081-4.465-9.836-11.902.027-.804-1.906-2.46-2.825-2.388-10.575.831-11.206.398-11.976-10.004 1.108-1.597 1.92-3.313 3.236-3.903 3.012-1.351 6.29-2.097 9.424-3.19 4.255-1.485 6.87-3.938 4.493-8.722 7.685-3.572 8.141-4.195 7.153-9.455 7.953-3.57 7.953-3.57 6.67-9.622 8.6-3.281 9.692-4.702 8.101-10.363 1.976-1.593 4.115-2.96 5.799-4.754 2.847-3.033 1.786-6.638-2.13-8.033-4.597-1.638-14.775.798-17.124 5.336-1.862 3.598-3.988 6.283-7.171 8.56-1.538 1.1-2.251 3.744-3.834 4.317-4.312 1.561-6.387 3.92-4.814 8.526-3.591 2.508-10.245 2.45-6.899 10.183-7.158-.33-7.815 4.385-8.028 9.427m85.153-29.567c-.337-1.406-.675-2.813-.211-4.077l2.237-1.289c-.644-.871-1.128-2.275-1.959-2.525-5.18-1.559-10.374-3.429-15.695-4.029-3.101-.35-6.446 1.47-9.681 2.314l.435 2.103c1.522 0 3.044 0 5.213.295l4.408-1.111c3.423.637 6.846 1.273 10.247 2.638l-2.871 3.427h5.191c-.61.898-.959 1.414-2.046 1.993-.737.016-1.473.032-2.476-.408a24.75 24.75 0 0 1-2.625 1.096l-12.732 4.54.531 1.433 23.612-3.683c-.305-.385-.94-1.184-1.578-2.717m87.351 7.998c-4.391-6.917-20.422-11.275-26.598-4.81 1.293.305 2.435.981 3.264.707 7.676-2.539 13.766 1.448 20.113 4.578.794.391 1.933.081 3.221-.476m-12.14-19.645l-11.067 2.768.315 1.844 24.096-1.863c-4.393-2.625-8.204-3.808-13.344-2.749m-26.108 60.636l-9.688 6.521c3.183 2.07 8.039 1.046 10.781-2.634 2.176-2.921 5.655-5.936.94-10.564-.594 2.479-1.034 4.32-2.033 6.677m-22.647 4.612l-1.573 2.446c.816.309 1.635.89 2.448.881 4.996-.053 10.532-5.041 11.12-10.114.125-1.074-.564-2.243-.878-3.368-.849.82-2.289 1.539-2.449 2.476-.78 4.583-3.551 6.853-8.669 7.677m-5.46-10.087l-2.447 6.103c-.643 1.663-1.226 3.349-1.836 5.025l1.789.714c1.651-2.588 3.641-5.038 4.78-7.834.437-1.074-1.066-2.939-2.286-4.008m-32.471-45.425s.049.09 0 0m-3.002-3.994s.046.085 0 0z"/><path fill="#c4beb7" d="M204.952 128.023c-7.255 3.29-11.918 9.291-15.975 15.764-.579.924.653 2.984.833 4.861-2.372.023-4.131-2.849-7.092-.73-5.795 2.601-10.488-1.513-15.591-1.606-2.16-3.372-4.031-6.981-6.563-10.046-2.385-2.888-5.466-5.202-8.357-8.45l-5.979-12.239c-5.213-13.852-26.134-23.233-40.688-17.738-1.763 3.09-3.147 6.127-4.684 9.436-.269 1.091-.384 1.912-.654 3.162.422 5.495.998 10.56 1.575 15.625l-8.253.986c-5.309-.235-10.002-1.17-14.615-.868-2.029.133-3.815 2.898-5.85 4.262-4.715 3.16-9.822 5.817-14.193 9.385-4.487 3.663-9.095 6.558-15.02 7.084-1.094-1.129-2.055-2.022-3.019-3.321l-.206-5.929c-.024-.033-.038-.02-.038-.02l.543-.846 4.629-11.234c0-.042.174.019.596.17 2.531-1.382 3.501-3.138-.001-3.645-3.935-.57-4.195-3.235-3.322-5.733 1.982-5.67 5.501-10.271 10.946-12.991l.027 1.758 7.588 1.838c14.732.747 24.185-6.166 30.331-18.614 4.953-10.033 5.527-20.68 5.006-31.952-.83-1.088-1.551-2.189-2.452-2.365L80.866 51.55c-3.513-2.76-6.785-5.3-10.156-7.702-1.091-.777-2.438-1.195-3.666-2.093-.379-2.342-.761-4.369-.75-6.485 4.302.594 8.468.645 12.063 2.105 6.143 2.495 14.018 2.1 17.546 9.813.945-.337 2.073-.414 2.704-1.014 6.557-6.238 14.182-10.574 22.521-14.092 14.833-6.258 30.146-10.487 46.201-10.845 13.063-.291 26.155.698 39.294 1.127.059.008.159-.057.391.165 1.481.378 2.729.535 4.373.893 16.637 3.02 32.083 7.747 45.545 17.839 1.908 1.43 5.445 1.942 7.798 1.3 9.183-2.505 18.193-5.644 27.52-8.509.418-.001.583-.041.997.068.381.288.514.427.379.752-1.101 2.558-1.933 4.931-3.067 7.226-1.175-.005-2.321-.263-2.88.195l-11.515 9.6c-4.404.689-8.47 1.132-12.433 2.031-1.342.304-2.422 1.763-3.633 3.186-.042 5.156-.56 9.879-.009 14.473 1.489 12.42 5.408 23.944 16.84 30.705 4.387 2.594 9.881 3.938 15.002 4.399 2.481.223 5.259-2.913 7.917-4.503.269-.161.64-.152.966.106-.47 1.601-.943 2.874-1.205 3.581 2.14-.386 4.27-.77 6.632-.893 2.845 4.127 5.699 7.858 7.988 11.907 1.523 2.695.594 4.856-2.959 5.027-3.662.176-3.154 1.833-1.603 4.144 2.115 3.151 4.806 6.207 5.823 9.716.912 3.147-.106 6.853-.273 10.313-3.058-.46-6.115-.921-9.398-1.656-4.512-2.394-8.826-4.459-13.058-6.682-.739-.389-1.091-1.475-1.689-2.183-1.014-1.2-1.945-2.529-3.159-3.489-1.936-1.531-4.062-2.825-6.136-4.176-1.202-.783-2.48-2.141-3.686-2.101-4.688.155-9.361.766-14.04 1.207-2.199-.677-4.398-1.355-7.052-2.435-.586-.798-.718-1.193-.689-2.032.388-4.228 1.474-8.222.615-11.74-.991-4.055.949-9.613-4.925-12.259-3.138-.844-6.021-1.722-8.922-1.782-21.657-.445-31.65 13.44-38.127 31.267m-10.216-24.754c-4.207 1.175-3.85 4.631-3.322 7.636.311 1.772 2.032 4.725 2.994 4.676 2.524-.128 5.509-1.062 7.265-2.757 1.067-1.031 1.004-4.659-.013-6.059-1.275-1.757-4.047-2.428-6.924-3.496m44.805-19.133c-1.067 4.591 1.729 6.91 5.426 7.816 1.49.365 4.859-1.182 5.015-2.216.456-3.007.792-7.003-.804-9.118-2.316-3.07-5.645-.707-8.161 1.321-.488.393-.806.998-1.477 2.197m-81.529 12.327c-3.32-.476-6.019.688-5.736 4.219.227 2.828 1.928 5.539 2.975 8.302 2.57-1.06 5.769-1.498 7.567-3.319 2.973-3.012 1.439-5.873-4.806-9.201m50.644-45.293c-1.169 4.239.98 6.945 4.655 7.921 1.763.468 5.601-.677 5.79-1.628.599-3.024-.076-6.3-.258-9.479-2.564.2-5.151.265-7.68.679-.812.133-1.473 1.188-2.506 2.508m-28.175 48.115c1.373-1.719 3.515-3.265 3.949-5.195.768-3.414-3.082-6.769-6.894-6.72-5.083.065-4.696 3.962-4.668 7.145.039 4.428 2.498 6.28 7.614 4.77m28.814-2.692c2.925.677 5.787.98 6.543-2.927.658-3.398 1.61-7.833-2.28-9.063-2.158-.682-6.281 1.604-8.073 3.756-2.898 3.481.162 5.947 3.811 8.233m-36.811-22.671c4.08-.478 3.966-3.894 3.663-6.422-.267-2.224-2.427-6.168-3.177-6.038-2.793.484-5.958 1.774-7.833 3.817-2.122 2.314-.383 5.019 2.043 6.616 1.349.888 3.01 1.303 5.303 2.027m10.512-21.711c.675 1.105 1.155 2.415 2.061 3.276 2.5 2.378 5.528 3.358 8.323.82 2.379-2.16 1.909-8.9-.314-10.575-2.421-1.824-7.048-.605-9.016 2.506-.592.935-.773 2.13-1.055 3.972m47.451 14.801c-3.831-2.711-6.805-.546-8.821 2.3-1.026 1.45-1.211 5.233-.233 6.005 2.083 1.644 5.576 3.212 7.717 2.497 1.559-.521 2.011-4.716 2.672-7.345.206-.82-.518-1.874-1.335-3.457m-97.621.397c-.64-2.906-.162-6.932-4.937-6.288-3.594.485-6.848 2.177-6.91 6.432-.059 4.076 3.071 5.672 6.477 6.275 4.333.767 4.523-2.774 5.37-6.419m15.075 19.91c3.219.549 4.98-1.306 5.001-4.066.02-2.629-.293-5.988-1.892-7.632-.979-1.007-5.137-.094-7.029 1.191-4.807 3.264-3.542 6.958 3.92 10.508m51.25-13.962c-1.515-.808-3.453-2.638-4.461-2.221-2.426 1.003-4.829 2.753-6.377 4.842-.615.83.554 4.096 1.798 4.934 1.929 1.298 5.18 2.654 6.865 1.858 3.287-1.553 3.588-5.161 2.175-9.413m-51.136-14.433c2.654.382 5.561.231 5.781-2.952.201-2.905-.529-6.092-1.781-8.709-.277-.578-4.824.121-6.795 1.274-4.462 2.61-3.553 6.561 2.795 10.387m-34.378 31.561c3.512-.317 6.516-1.487 7.748-5.144 1.384-4.109-1.875-6.003-4.54-7.001-1.689-.633-5.778.605-6.13 1.792-1.014 3.423-1.79 7.516 2.922 10.353z"/><path fill="#442616" d="M43.978 147.147c5.794-.762 10.401-3.657 14.889-7.32 4.371-3.568 9.478-6.225 14.193-9.385 2.035-1.364 3.821-4.129 5.85-4.262 4.613-.301 9.306.633 14.326 1.187 3.561 3.929.645 6.105-2.155 7.443-2.885 1.379-5.097 2.463-6.764 5.74-1.617 3.179-5.447 5.239-8.33 7.761-.597.522-1.46.793-1.936 1.39-1.613 2.027-3.107 4.149-5.371 7.217 1.382 4.347-3.065 4.678-5.122 5.023-2.241 3.728-4.108 6.04-5.122 8.68-2.348 6.113-4.284 12.385-6.457 18.998-2.836-1.068-3.602-2.894-2.203-6.046 1.429-3.22 2.032-6.807 2.95-10.069-.515-.477-.766-.904-.993-.891-3.98.226-9.139.711-10.304-3.46-1.285-4.599-1.502-10.067 2.219-14.61 1.009-1.231 4.922-2.956.717-5.827-.337-.738-.362-1.154-.387-1.569z"/><path fill="#442715" d="M60.168 196.034c-.118-5.167.538-9.881 7.696-9.552-3.347-7.732 3.307-7.674 6.899-10.183-1.573-4.606.502-6.965 4.814-8.526 1.583-.573 2.296-3.217 3.834-4.317 3.183-2.277 5.308-4.962 7.171-8.56 2.349-4.538 12.527-6.974 17.124-5.336 3.916 1.395 4.978 5 2.13 8.033-1.684 1.794-3.823 3.161-5.799 4.754 1.592 5.661.499 7.082-8.101 10.363 1.283 6.052 1.283 6.052-6.67 9.622.988 5.26.531 5.883-7.153 9.455 2.377 4.784-.237 7.237-4.493 8.722-3.134 1.094-6.412 1.839-9.424 3.19-1.316.59-2.128 2.306-3.58 3.908-1.094.408-1.778.418-2.461.429l1.826-10.248-3.813-1.753z"/><path fill="#432715" d="M291.67 204.16c-3.893-1.285-7.835-2.443-11.667-3.891-3.89-1.47-6.84-3.722-4.747-8.533-4.351-1.852-8.88-3.172-7.01-9.128-8.07-4.182-8.521-4.849-6.269-9.522-2.028-1.019-4.167-1.885-6.062-3.125-1.146-.749-2.868-2.282-2.691-3.113.98-4.591-2.677-6.087-4.899-8.728-1.324-1.574-2.655-4.74-1.928-6.043.94-1.684 4.205-3.438 5.992-3.036 6.476 1.455 14.353 1.329 16.223 10.258 4.864 1.46 5.253 8.08 10.743 9.156 1.492.292 3.671 3.026 3.537 4.451-.3 3.182 1.394 4.042 3.571 5.044 3.317 1.526 5.977 3.415 4.158 6.065l6.972 10.318c-.998 1.155-2.289 1.942-3.581 2.729-.035 1.46-.07 2.92-.374 4.904-.835 1.08-1.402 1.637-1.968 2.193z"/><path fill="#452f21" d="M206.564 22.356c-13.079-.421-26.171-1.411-39.235-1.12-16.055.358-31.368 4.587-46.201 10.845-8.339 3.518-15.964 7.855-22.521 14.092-.631.6-1.759.677-2.704 1.014-3.528-7.713-11.404-7.319-17.546-9.813-3.594-1.46-7.761-1.511-12.411-2.263l-6.351-.8-11.974.864c-2.75 1.329-5.133 2.73-7.549 3.846a15.94 15.94 0 0 0-.72-1.774c4.741-6.331 12.11-5.864 18.479-5.815 7.657.059 15.366 1.982 22.92 3.687 4.511 1.018 8.698 3.41 13.172 4.69 1.961.561 4.937.726 6.322-.365 9.384-7.391 20.311-11.223 31.416-14.978 11.318-3.827 22.802-6.455 34.732-6.572 10.693-.105 21.423-2.208 32.103.94 3.688 1.087 7.78.801 11.831 1.435-1.159.89-2.461 1.489-3.763 2.088z"/><path fill="#453022" d="M291.757 204.556c.48-.952 1.046-1.508 1.838-2.258 4.145 4.624 2.651 9.491.091 14.162-2.423 4.42-6.543 5.155-11.096 4.093-2.288 9.79-4.836 12.15-14.503 13.459-2.605.353-5.333 1.127-7.824.685-3.633-.644-5.026 1.38-5.827 3.957-4.711 15.154-13.527 15.488-26.885 13.669-1.929-.263-4.356-.133-5.935.828-10.498 6.391-21.073 8.806-32.484 2.245-.967-.556-2.968.688-4.818.831-.288-1.447-.245-2.629-.203-3.811 1.836-.154 4.127-1.094 5.437-.337 10.869 6.281 20.774 4.81 30.334-2.798 1.199-.954 3.534-1.463 4.961-1 14.428 4.676 25.195-.334 27.597-16.106 4.191-.339 8.453-.434 12.632-1.07 11.512-1.751 12.11-2.47 13.237-14.141l5.107.777c6.263.956 10.263-3.553 8.766-9.837-.228-.956-.23-1.966-.423-3.347z"/><path fill="#442616" d="M301.012 172.995c-3.574-2.825-5.595-6.538-6.656-11.506-.357-2.268-.357-4.036-.357-6.199l-3.804.755c-.147-.388-.294-.775-.233-1.612 2.104-.601 4.337-.164 5.831-1.019 3.922-2.243 6.794-1.375 10.22 1.998 0-2.478 0-4.956.334-7.427 1.109.337 1.883.668 2.766 1.211.299.481.548.672.86 1.04.012.422.02.591.141.974.314.482.57.673 1.027 1.086 1.07 1.078 1.997 1.86 2.924 2.642 0 0-.006.019.08.247.271.512.521.716.837.838.344 1.707.689 3.414.987 5.89-.673 5.894-2.861 10.145-8.658 8.619-3.464-.912-4.246 1.646-6.299 2.461z"/><path fill="#493527" d="M38.998 37.343c.582.4.811.896.905 1.981-1.357 4.277-3.706 7.996-3.602 11.646.404 14.196 5.119 27.267 12.665 39.209 3.681 5.825 8.097 11.187 12.18 16.758l-7.145-1.818-.027-1.758c-5.445 2.72-8.965 7.321-10.946 12.991-.873 2.498-.613 5.164 3.322 5.733 3.503.507 2.532 2.264-.078 3.345-1.117-.408-1.733-.365-2.349-.321-4.092-2.58-5.491-7.342-2.855-11.858 2.622-4.492 5.852-8.629 8.817-12.926-3.745-7.636-8.167-15.514-11.539-23.819-4.098-10.093-5.745-20.811-4.039-31.679.412-2.625 2.837-4.933 4.69-7.484z"/><path fill="#4a3428" d="M306.01 104.716l-6.401 1.154 1.415-3.846c1.351-1.88 2.494-3.166 3.704-4.102.118.581.17.811.103 1.106-.011.049.096.033.357-.161-.046-.577-.247-.976-.396-1.713 4.581-9.716 10.142-18.756 13.349-28.566 3.217-9.841 6.203-20.608-1.973-30.147-.116-.136.404-.816.722-1.346l.287-.309c5.945 2.739 7.727 8.044 7.679 13.859-.11 13.255-4.25 25.419-10.893 36.821-2.44 4.187-4.564 8.559-7.221 13.241-.503 1.6-.618 2.805-.732 4.01z"/><path fill="#412a21" d="M206.623 22.364l4.098-2.06c8.598 1.926 17.062 3.746 25.25 6.415 5.721 1.865 11.076 4.863 16.562 7.425 1.169.546 2.487 1.17 3.242 2.142 3.264 4.205 7.001 4.488 11.969 1.712 1.227-.394 1.764-.728 2.301-1.062 2.438-.875 4.877-1.75 7.746-2.607.679-.124.928-.265 1.177-.407 0 0 .044.054.421.06 2.121-.352 3.865-.71 5.609-1.068.1-.313.289-.558 1.022-.559 2.616-.308 4.776-.791 6.936-1.275.51-.255 1.019-.511 1.877-.52 1.621 1.314 2.893 2.382 3.745 3.538l-4.683.588c-.133-.139-.267-.278-.746-.715-.614-.184-.883-.071-1.151.043-9.074 2.903-18.084 6.043-27.267 8.547-2.353.642-5.89.13-7.798-1.3-13.463-10.092-28.908-14.819-45.713-18.115-1.855-.598-3.146-.719-4.438-.839 0 0-.1.065-.159.057z"/><path fill="#453025" d="M306.241 104.977c-.117-1.465-.003-2.67.407-3.927 4.324 3.791 8.793 7.12 10.885 12.751 1.259 3.387 1.735 6.846-.484 9.135-3.303 3.408-1.508 5.673.085 8.713 1.499 2.861 3.235 6.161 3.063 9.165-.152 2.661-2.395 5.561-4.438 7.648-1.821 1.86-3.114 3.231-1.681 6.118-.94-.422-1.867-1.204-3.051-2.497-.457-.778-.713-.97-1.026-1.086-.008-.169-.016-.337-.131-.975-.303-.734-.555-.924-.865-1.038-.775-.33-1.549-.661-2.657-1.407-.323-1.235-.313-2.055-.303-2.874l9.173 1.381c.167-3.46 1.185-7.166.273-10.313-1.017-3.51-3.709-6.565-5.823-9.716-1.551-2.312-2.059-3.969 1.603-4.144 3.553-.17 4.482-2.331 2.959-5.027-2.289-4.05-5.143-7.781-7.988-11.907z"/><path fill="#4a3628" d="M62.092 208.469c.746-.444 1.43-.455 2.456-.47 1.181 10.005 1.812 10.438 12.387 9.607.919-.072 2.852 1.584 2.825 2.388-.245 7.437 2.58 11.153 9.836 11.902 3.766.389 7.6.132 11.363.54 1.604.174 3.105 1.302 4.368 2.289-2.062.111-3.84-.071-5.702-.262l.375 2.415c-6.756-1.828-13.562-3.503-20.225-5.624-1.23-.392-2.222-2.478-2.728-3.983-.877-2.609-1.04-5.141-4.799-5.728-9.425-1.47-10.587-3.163-10.158-13.075z"/><path fill="#4a3627" d="M183.758 252.497c.309 1.101.267 2.284.218 3.81-2.028.693-4.668 2.027-5.96 1.215-4.884-3.07-9.182-1.123-13.926.124-8.443 2.219-16.988 2.465-24.901-2.11-2.162-1.25-3.899-3.237-6.025-5.166 2.935-1.634 5.438-.393 7.955 1.452 8.121 5.951 16.677 5.56 25.25 1.188 3.026-1.543 5.448-2.037 8.818-.393 2.208 1.077 5.444.048 8.571-.119z"/><path fill="#463223" d="M301.062 173.366c2.003-1.186 2.784-3.744 6.248-2.832 5.797 1.526 7.985-2.726 8.66-8.231 2.589 6.602 1.518 7.786-10.772 11.254 2.501 6.917 5.45 14.006-.042 20.819-2.734 3.391-6.419 4.067-10.829 2.801.976-.9 2.268-1.687 3.618-2.777.486-.45.915-.598 1.717-.398l1.239 1.155.816-1.992c5.955-6.667 1.74-13.018-.655-19.797z"/><path fill="#4c382b" d="M100.369 236.949c-.468-.716-.568-1.361-.743-2.486l5.746.673c2.04 11.624 9.294 15.629 20.907 14.458 1.789-.18 3.574-.393 5.576-.247-1.001 1.356-2.135 3.112-3.445 3.255-7.198.784-14.688 1.662-20.403-4.125-1.938-1.962-2.522-5.207-3.984-7.715-.821-1.407-2.173-2.505-3.653-3.813z"/><path fill="#473324" d="M298.997 34.008l-3.888-3.52c4.231.238 8.639.39 12.802 1.479 3.112.813 5.907 2.835 9.055 4.568.211.25.02.455-.481.539-6.163-.966-11.826-2.016-17.488-3.066z"/><path d="M45.755 125.603l-4.611 10.923c-3.358-1.16-1.377-2.984-.667-4.59a24.96 24.96 0 0 1 3.536-5.85l1.742-.483zm-5.109 12.09c.06 1.83.12 3.66-.163 5.898-1.031.41-1.719.411-2.407.413.019-1.413.037-2.826.395-4.817.951-.883 1.563-1.189 2.175-1.495z" fill="#493527"/><path fill="#4c372d" d="M38.048 144.355c.716-.352 1.404-.354 2.437-.358 1.307.891 2.269 1.784 3.362 2.913.156.652.181 1.067.198 1.794-2.033-1.098-5.813-.06-5.997-4.35z"/><path d="M292.56 31.012c-1.765.549-3.925 1.033-6.322 1.255 1.818-.614 3.873-.968 6.322-1.255zm-7.968 1.924c-1.34.334-3.084.693-5.237 1.033 1.338-.348 3.085-.679 5.237-1.033z" fill="#473324"/><path d="M40.622 137.661l-2.112 1.105c.217-.383.734-.922 1.663-1.293l.45.188zm5.133-12.1c-.322.117-.644.192-1.46.322-.494.055-.395-.354-.383-.563.627-.253 1.243-.296 1.938-.04.079.3-.095.239-.095.281z" fill="#4c372d"/><path d="M269.706 36.909c-.199.36-.736.694-1.609 1.016.199-.355.735-.698 1.609-1.016zm9.022-2.972c-.01.125-.258.267-.607.261-.1-.147.368-.245.607-.261z" fill="#473324"/><path fill="#453025" d="M314.911 155.782c-.245.12-.495-.083-.775-.593.171-.033.438.159.775.593z"/><path fill="#452713" d="M205.144 128.305c6.285-18.108 16.278-31.994 37.935-31.548 2.901.06 5.784.938 8.653 1.93-.275.811-.527 1.128-1.224 1.363l-15.303-.082c10.019 4.205 13.052 10.575 11.243 22.024-.394.665-.611 1.193-.84 1.732-.011.012-.033.034-.272.232-9.386 10.814-20.554 8.798-26.72.088-1.6-2.261-2.219-5.216-3.817-9.154-.356 3.556-1.607 6.524-.634 8.206 2.438 4.211 5.883 7.839 8.913 12.124l-.127 2.968-17.808-9.884z"/><path fill="#462916" d="M179.853 179.336c.33-.17.645-.146 1.074.467.265.726.51.85.86.768 3.3 1.353 6.99 2.17 9.792 4.207 2.872 2.087 5.056 5.24 7.171 8.191.827 1.153 1.393 3.656.746 4.427-.945 1.126-3.234 1.946-4.694 1.647-3.209-.658-6.596-1.579-9.299-3.334-5.162-3.349-10.222-3.314-15.642-1.203-2.938 1.144-5.853 2.663-8.907 3.088-2.135.297-5.412-.296-6.468-1.741-.939-1.285-.297-4.992.99-6.411 4.868-5.367 10.834-9.204 18.885-9.777.674.268.794.343.914.417l-.622-.562c.054-.202.107-.403.84-.438a49.22 49.22 0 0 0 4.36.253z"/><path fill="#402413" d="M305.82 144.428c.215 1.094.205 1.913.194 3.141l-.001 7.842c-3.426-3.373-6.299-4.24-10.22-1.998-1.494.855-3.727.418-5.973.733-3.25.355-6.107.47-6.073-3.892 6.367-2.724 6.367-2.724 1.045-10.118-1.897.107-3.378-.147-4.524.359-.976.431-1.565 1.736-2.326 2.655-1.874-1.176-3.815-2.26-5.601-3.557-1.538-1.118-2.717-2.855-4.375-3.657-3.619-1.75-6.608-3.508-4.025-8.566 4.79-.808 9.463-1.419 14.151-1.574 1.206-.04 2.484 1.318 3.686 2.101 2.074 1.351 4.2 2.645 6.136 4.176 1.215.96 2.145 2.289 3.159 3.489.598.707.949 1.794 1.689 2.183l13.058 6.682m-9.55-1.52l-6.484-3.509c.705 2.106 1.731 3.705 1.643 5.239-.142 2.46-.675 4.537 3.017 3.687 3.165-.728 4.332-2.288 2.8-5.429-.082.034-.164.068-.976.011m-8.999-5.429l.323-1.631-1.169-.018c.092.547.185 1.093.846 1.648z"/><path fill="#483019" d="M101.959 126.357c-.758-5.361-1.335-10.426-1.469-15.998.468-1.456.494-2.406.52-3.356 1.384-3.037 2.768-6.074 4.548-8.788.416.827.436 1.33.215 2.128-.805 2.334-1.298 4.396-1.947 6.407-2.91 9.012-.108 18.733 7.251 24.546 1.068.834 1.936 1.423 3.056 2.269 5.496 2.886 10.888 3.956 16.911 1.749 11.341-5.788 13.496-9.373 12.234-19.211l2.884-.156c1.976 3.729 3.952 7.458 5.874 11.581-6.058 4.067-11.81 8.267-18.124 11.293-9.447 4.527-24.895-1.296-29.972-10.495-.376-.681-1.19-1.121-1.983-1.968z"/><path fill="#e8bd87" d="M183.13 147.978c2.549-2.179 4.308.693 6.841.984.511 1.049.647 2.126.6 3.594l-1.584 5.417c-6.822-1.6-7.28-1.08-5.361 7.046l-12.87.717c-.553.014-1.136-1.12-1.436-1.96 2.485-6.031 2.15-6.538-3.908-6.612-.477-.006-.954-.127-1.412-.171.018.023.056.069-.043-.348l-.909-5.789c.274-.98.547-1.96 1.291-2.503 4.524 1.592 8.527 3.305 12.65 3.676 2.173.196 5.912.004 6.141-4.051z"/><path fill="#492d17" d="M169.051 164.014c.569.602 1.153 1.736 1.706 1.722 4.263-.112 8.519-.446 12.87-.717-1.919-8.127-1.461-8.646 5.361-7.046.47-1.687.935-3.357 1.717-5.227.818 1.489 1.5 3.149 1.787 4.874.962 5.782-2.816 8.232-7.357 9.985-1.984.766-4.061 1.288-7.054 2.219.365 2.78.776 5.902 1.48 9.269-.933.216-2.16.188-3.872-.254-.486-3.294-.486-6.176-.486-8.224-3.318-1.754-5.895-3.116-8.768-4.902.675-.849 1.646-1.273 2.618-1.698z"/><path fill="#503a1f" d="M223.215 138.467c-.225-1.126-.186-1.974.264-3.223 11.079 4.27 21.959-.466 26.821-8.424.991-1.184 1.743-2.169 2.676-2.872.773.523 1.365.764 2.109 1.155a15.99 15.99 0 0 0 .47.431c-5.49 10.387-14.614 14.371-25.826 14.435-2.081.012-4.167-.795-6.514-1.502z"/><path fill="#4e3b26" d="M232.186 174.626c-1.133.271-2.273.581-3.066.19-6.347-3.13-12.437-7.117-20.113-4.578-.829.274-1.971-.402-3.264-.707 6.176-6.465 22.207-2.107 26.443 5.096z"/><path fill="#56422e" d="M140.005 159.932l-11.006-1.925c-1.931.267-3.124.549-4.317.832h-4.566l-.435-2.103c3.235-.844 6.58-2.664 9.681-2.314 5.321.6 10.515 2.47 15.695 4.029.831.25 1.315 1.654 1.959 2.525-.746.43-1.491.859-2.769.906-1.769-.905-3.005-1.428-4.241-1.95z"/><path fill="#4a2a15" d="M169.32 163.776c-1.241.663-2.213 1.087-3.252 1.85-6.788-1.836-7.733-6.036-3.161-14.401.41 1.422.68 3.213.883 5.362.019.367.105.375.191.383.477.067.953.188 1.43.194 6.058.075 6.393.581 3.908 6.612z"/><path fill="#4d3a25" d="M138.047 166.129c.737-.016 1.473-.032 2.811.196l4.135.75 1.574 1.984-23.612 3.683-.531-1.433 13.419-4.582c1.193-.227 1.698-.413 2.204-.598z"/><path fill="#533f2a" d="M220.592 154.531c4.748-.893 8.559.289 12.952 2.914l-24.096 1.863-.315-1.844 11.458-2.933z"/><path fill="#442616" d="M277.971 143.514c.731-1.281 1.321-2.587 2.297-3.017 1.146-.506 2.627-.252 4.524-.359 5.322 7.393 5.322 7.393-.85 9.792-2.194-1.961-4.067-4.007-5.97-6.416z"/><path fill="#513f2b" d="M194.372 215.073c.72-2.099 1.161-3.939 1.754-6.419 4.716 4.628 1.237 7.642-.94 10.564-2.742 3.68-7.599 4.704-10.782 2.634l9.967-6.779z"/><path fill="#4e3d27" d="M171.839 219.926c4.724-.806 7.495-3.077 8.275-7.659.16-.937 1.599-1.657 2.449-2.477.314 1.125 1.002 2.294.878 3.368-.588 5.073-6.124 10.061-11.12 10.114-.813.009-1.632-.573-2.448-.881.524-.815 1.049-1.631 1.966-2.464z"/><path fill="#4a3018" d="M182.718 147.918c.184 4.115-3.556 4.307-5.729 4.111-4.124-.372-8.127-2.084-12.348-3.632.503-.911 1.174-1.429 2.165-2.016 5.423.024 10.116 4.138 15.911 1.537z"/><path fill="#594832" d="M166.286 209.639c.919 1.287 2.423 3.152 1.986 4.226-1.139 2.796-3.129 5.246-4.78 7.834l-1.789-.714 1.836-5.025 2.747-6.32z"/><path fill="#efe9d0" d="M144.991 166.709c-1.176.198-2.354.029-3.765-.415.117-.791.466-1.307 1.076-2.205h-5.191l2.882-3.792c1.247.158 2.484.681 3.852 1.515l1.146 4.897z"/><path fill="#402413" d="M289.865 156.232c1.41-.401 2.491-.616 4.134-.942l.001 6.103c-2.95-.174-6.539-.224-4.134-5.161m2.571 1.255s.085-.046 0 0z"/><path fill="#efe9d0" d="M125.005 158.987c.87-.43 2.063-.712 3.631-.896-.853.414-2.08.729-3.631.896z"/><path fill="#523f24" d="M256.15 122.981l.464 1.497c-.237.395-.483.564-.864.938-.195.118-.513-.164-.63-.561.266-.889.648-1.382 1.031-1.874z"/><path fill="#efe9d0" d="M137.914 165.901c-.373.413-.878.599-1.661.711.325-.362.926-.65 1.661-.711z"/><path fill="#432715" d="M301.403 193.179c.043.648-.229 1.312-.501 1.977-.288-.269-.576-.539-.9-1.113.338-.486.712-.667 1.401-.864z"/><path d="M181.589 180.387c-.153.266-.397.142-.582-.348.097-.052.241.056.582.348zm-6.938-.852l.623.548c-.12-.075-.24-.15-.514-.393-.153-.168-.111-.142-.11-.156z" fill="#492d17"/><path d="M133.539 164.477c.025.045-.025-.045 0 0zm-3.004-3.996c.023.043-.023-.043 0 0z" fill="#efe9d0"/><path d="M298.577 34.097l17.813 3.081c.182.446-.338 1.126-.222 1.262 8.176 9.54 5.19 20.306 1.973 30.147-3.207 9.81-8.768 18.851-13.351 28.608-.054.379-.128.375-.128.375l-3.639 4.125c-.534.335-.905.326-1.175.487-2.658 1.59-5.436 4.727-7.917 4.503-5.121-.461-10.615-1.805-15.002-4.399-11.433-6.761-15.352-18.285-16.84-30.705-.551-4.594-.033-9.317.459-14.397 6.459-1.338 12.456-2.26 18.791-3.287 1.806-.722 3.274-1.338 4.789-1.54.943 1.324 1.695 2.738 2.763 3.042 2.494.711 5.389.352 7.664 1.411 3.194 1.486 5.974 3.865 8.9 5.841.982-4.542-3.038-9.113-8.693-9.677-3.591-.358-7.192-.621-10.733-1.269 2.314-3.405 4.572-6.468 6.83-9.531.832-2.373 1.665-4.745 2.766-7.304 1.69-.352 3.111-.519 4.951-.774m-9.739 37.045l4.539 10.536c2.202-6.29.052-11.193-4.269-13.546-2.153-4.882-6.021-7.2-11.226-7.023-1.322.045-2.605 1.25-3.084 1.498 4.946 2.765 9.462 5.29 14.04 8.536zM61.589 106.958c-4.526-5.592-8.941-10.953-12.623-16.778-7.547-11.942-12.261-25.013-12.665-39.209-.104-3.65 2.246-7.37 3.637-11.361 2.551-1.705 4.933-3.106 7.752-4.087 4.505 5.586 8.936 2.852 13.327 1.012l-.989-2.136c1.726.215 3.452.43 5.527.803.73 2.185 1.112 4.211 1.428 6.916 2.277 3.743 4.619 6.807 6.604 10.167-5.07.774-9.858.888-14.473 1.839-4.056.836-6.261 5.761-4.036 8.606 3.607-5.366 8.565-7.75 15.006-6.842 2.926.413 4.093-1.159 4.117-3.825 1.935.845 3.539 1.535 5.465 2.473 5.978.921 11.633 1.595 17.288 2.269.494 10.858-.079 21.506-5.033 31.539-6.146 12.449-15.598 19.361-30.331 18.614m3.404-35.428l-2.695 7.998 2.148.796c.704-1.424 1.473-2.819 2.101-4.276 2.4-5.565 4.541-11.297 12.254-11.145 1.189.023 2.402-1.182 4.817-2.462-11.068-1.066-14.314.607-18.624 9.089z" fill="#f6f1da"/><path fill="#442513" d="M106.014 100.049l-.076-1.886c14.157-5.819 35.078 3.562 40.291 17.414-.89.41-1.714.451-2.922.52-.383.028-.422.068-.422-.265-.627-.833-1.254-1.333-1.932-2.143-.689-.914-1.327-1.518-1.966-2.122 1.329 6.072.189 10.537-6.271 11.995.108 2.072.193 3.684.052 5.555-1.411.94-2.597 1.622-4.213 2.222-4.677-1.215-8.925-2.349-13.325-3.765-.8-.833-1.447-1.382-2.144-2.285-6.465-10.05-2.107-20.151 8.519-25.24h-15.591z"/><path fill="#462f1f" d="M195.112 103.234c2.502 1.104 5.273 1.775 6.548 3.532 1.017 1.401 1.08 5.029.013 6.059-1.756 1.696-4.741 2.629-7.265 2.757-.962.049-2.683-2.904-2.994-4.676-.528-3.005-.885-6.462 3.698-7.672z"/><path fill="#442c1c" d="M239.678 83.791c.534-.853.851-1.458 1.339-1.851 2.516-2.028 5.844-4.39 8.161-1.321 1.596 2.115 1.26 6.111.804 9.118-.157 1.034-3.525 2.581-5.015 2.216-3.697-.906-6.493-3.226-5.289-8.162z"/><path fill="#442b1a" d="M158.374 96.584c5.883 3.208 7.418 6.069 4.444 9.081-1.798 1.821-4.997 2.26-7.567 3.319-1.047-2.763-2.748-5.473-2.975-8.302-.283-3.531 2.416-4.695 6.097-4.099z"/><path fill="#472b1d" d="M208.807 50.828c.882-.977 1.543-2.032 2.355-2.165 2.529-.414 5.116-.479 7.68-.679.183 3.179.857 6.455.258 9.479-.188.951-4.026 2.096-5.79 1.628-3.675-.975-5.824-3.682-4.504-8.264z"/><path fill="#452a1d" d="M180.138 99.468c-4.772 1.328-7.232-.524-7.27-4.952-.028-3.183-.415-7.08 4.668-7.145 3.812-.049 7.662 3.306 6.894 6.72-.434 1.93-2.576 3.476-4.292 5.376z"/><path fill="#432919" d="M208.973 96.382c-3.326-2.073-6.386-4.539-3.488-8.02 1.792-2.152 5.915-4.438 8.073-3.756 3.89 1.229 2.938 5.665 2.28 9.063-.756 3.906-3.618 3.603-6.865 2.714z"/><path fill="#472e1f" d="M172.099 73.875c-1.907-.676-3.568-1.091-4.917-1.979-2.426-1.596-4.165-4.302-2.043-6.616 1.874-2.044 5.04-3.334 7.833-3.817.75-.13 2.91 3.815 3.177 6.038.303 2.528.417 5.944-4.05 6.374z"/><path fill="#452b1b" d="M182.953 51.829c.326-1.459.507-2.654 1.098-3.589 1.968-3.111 6.595-4.33 9.016-2.506 2.223 1.675 2.693 8.414.314 10.575-2.795 2.538-5.823 1.557-8.323-.82-.906-.862-1.386-2.171-2.105-3.659z"/><path fill="#452c1d" d="M230.708 67.331c.558 1.265 1.282 2.319 1.075 3.139-.661 2.629-1.113 6.824-2.672 7.345-2.142.715-5.635-.853-7.717-2.497-.978-.772-.793-4.555.233-6.005 2.016-2.847 4.99-5.011 9.08-1.983z"/><path fill="#462c1c" d="M132.75 67.803c-.771 3.253-.961 6.794-5.294 6.027-3.406-.603-6.536-2.199-6.477-6.275.062-4.255 3.316-5.947 6.91-6.432 4.776-.644 4.298 3.382 4.861 6.68z"/><path fill="#432719" d="M147.547 87.245c-7.108-3.474-8.373-7.168-3.566-10.432 1.892-1.285 6.05-2.197 7.029-1.191 1.599 1.644 1.912 5.003 1.892 7.632-.021 2.76-1.782 4.615-5.356 3.991z"/><path fill="#422a1a" d="M199.254 73.755c1.311 3.854 1.01 7.463-2.277 9.016-1.686.796-4.937-.56-6.865-1.858-1.245-.838-2.414-4.104-1.798-4.934 1.548-2.089 3.952-3.839 6.377-4.842 1.008-.417 2.946 1.413 4.564 2.618z"/><path fill="#432919" d="M147.635 58.819c-5.968-3.719-6.876-7.67-2.414-10.281 1.971-1.153 6.518-1.852 6.795-1.274 1.252 2.617 1.982 5.804 1.781 8.709-.22 3.183-3.127 3.334-6.161 2.846z"/><path fill="#452b1c" d="M113.28 90.391c-4.354-2.741-3.578-6.834-2.564-10.257.352-1.187 4.44-2.425 6.13-1.792 2.665.999 5.924 2.892 4.54 7.001-1.232 3.657-4.236 4.827-8.106 5.048z"/><path fill="#3e270f" d="M256.311 122.538l-1.343 2.168c-.627.006-1.219-.236-1.91-1.146.309-3.966.717-7.263 1.257-10.664.285-.455.179-.72-.265-1.316l-3.098-11.448c.252-.317.504-.635 1.025-1.1 5.897 2.153 3.957 7.711 4.948 11.766.86 3.518-.227 7.512-.615 11.74z"/><path fill="#4b3727" d="M279.002 54.004l-18.442 2.689c.75-1.007 1.83-2.466 3.172-2.77 3.963-.899 8.029-1.341 12.795-1.957 1.319.683 1.897 1.361 2.475 2.038z"/><path fill="#4a3524" d="M73.943 51.989c-2.343-3.064-4.685-6.128-6.964-9.555 1.293.219 2.641.636 3.731 1.413 3.371 2.402 6.643 4.942 10.075 8.09-.4 1.225-.922 1.788-1.443 2.352l-5.136-2.194c-.324-.124-.262-.106-.262-.106z"/><path fill="#4f3e2e" d="M279.339 53.898c-.916-.571-1.494-1.249-2.435-2 3.335-3.269 6.993-6.513 10.775-9.605.56-.458 1.705-.199 2.88-.195-1.957 3.141-4.215 6.204-6.497 9.588-.024.322.019.258.019.258l-4.743 1.954z"/><path fill="#493626" d="M79.664 54.536c.199-.81.72-1.374 1.323-2.325 4.554.322 9.044.946 13.486 1.815.901.176 1.621 1.277 2.452 2.365-5.628-.26-11.283-.934-17.261-1.855z"/><path fill="#452f21" d="M207.014 22.528c1.059-.101 2.35.019 3.809.416-1.08.119-2.329-.037-3.809-.416z"/><path fill="#49351d" d="M100.857 107.275c.128.679.102 1.628-.212 2.655-.172-.743-.057-1.564.212-2.655z"/><path fill="#473324" d="M292.25 34.052c.016-.152.284-.266.651-.23-.068.189-.233.229-.651.23z"/><path fill="#f1e9d0" d="M59.595 34.311c.762.799 1.091 1.511 1.421 2.223-4.391 1.84-8.822 4.574-12.959-.94 3.656-.688 7.381-1.029 11.538-1.283z"/><path d="M310.115 151.211c.2-.099.456.093.77.575-.199.098-.456-.093-.77-.575zm-1.002-2.014c.202-.099.454.09.753.571-.205.101-.454-.09-.753-.571z" fill="#402413"/><g fill="#453025"><path d="M304.949 98.962l-.221-1.04c-.067-.352.007-.347.009-.388.203.358.403.757.43 1.312-.174.155-.219.117-.219.117z"/><path d="M305.014 99.022c-.087.039-.195.056-.183.006.118-.066.164-.028.183-.006z"/></g><path fill="#eadfa4" d="M250.062 127.019c-4.623 7.758-15.503 12.494-26.572 7.8-3.442-3.885-6.887-7.513-9.324-11.724-.973-1.681.278-4.65.634-8.206 1.598 3.938 2.217 6.893 3.817 9.154 6.166 8.71 17.334 10.725 27.045.284 1.843 1.013 3.121 1.852 4.4 2.692z"/><path fill="#eee4a6" d="M250.301 126.82c-1.518-.64-2.796-1.479-4.4-2.69-.325-.372-.304-.394.09-.336.474-.608.554-1.274.634-1.94 1.632-11.311-1.401-17.68-11.42-21.886l15.303.082c1.451 3.759 2.457 7.435 3.48 11.785.077.837.136 1.001.196 1.165l-1.307 10.28c-.834 1.372-1.586 2.357-2.577 3.541z"/><path fill="#eadfa4" d="M246.448 121.992a2.24 2.24 0 0 1-.446 1.79c-.165-.597.052-1.125.446-1.79z"/><g fill="#442616"><path d="M297.001 143.001c1.775 3.037.608 4.598-2.556 5.326-3.693.85-3.159-1.227-3.017-3.687.089-1.534-.937-3.133-1.643-5.239l6.85 3.554.367.046zm-10.015-5.526c-.377-.551-.469-1.098-.562-1.644l1.169.017c-.108.544-.216 1.087-.608 1.627z"/><path d="M297 143l.123-.051L297 143z"/></g><path fill="#efe4a6" d="M105.774 100.345c5.189-.296 10.137-.296 15.831-.296-10.626 5.088-14.984 15.189-8.504 25.614.803 1.217 1.542 1.705 2.282 2.194 4.248 1.134 8.496 2.267 13.183 3.87 1.011 1.526 1.582 2.582 2.153 3.639-5.697 2.157-11.089 1.087-16.604-2.172-1.259-1.134-2.247-1.638-3.236-2.143-7.16-5.566-9.961-15.287-7.052-24.3.649-2.011 1.142-4.073 1.947-6.407z"/><path d="M131.045 135.315c-.898-1.006-1.469-2.062-2.05-3.506 1.176-1.07 2.363-1.752 4.097-2.768 4.877-3.392 8.67-6.769 8.295-12.878.696-.043 1.097-.02 1.498.004 0 0 .039-.04.011-.034 1.645 9.81-.51 13.395-11.851 19.183zm-19.967-4.018c.789.259 1.777.763 2.785 1.64-.849-.217-1.717-.805-2.785-1.64z" fill="#e8dea1"/><path fill="#e8bd87" d="M164 156.993c-.104-.031-.191-.039-.111.011.166.058.129.012.111-.011z"/><path fill="#442616" d="M292.478 157.464c.043-.023-.043.023 0 0z"/><path fill="#54422e" d="M284.006 52.028l10.757.947c5.655.564 9.675 5.135 8.693 9.677-2.926-1.976-5.705-4.355-8.9-5.841-2.275-1.059-5.17-.7-7.664-1.411-1.068-.304-1.821-1.718-2.763-3.042-.047-.414-.09-.351-.122-.33z"/><path fill="#584630" d="M288.777 70.421l-13.978-7.815c.479-.247 1.762-1.453 3.084-1.498 5.206-.177 9.074 2.141 11.141 7.777-.139 1.015-.193 1.275-.246 1.536z"/><path fill="#533e29" d="M288.807 70.782c.023-.621.076-.881.187-1.537 4.435 1.241 6.585 6.143 4.383 12.433l-4.57-10.896z"/><path fill="#462f1c" d="M65.148 71.195c4.154-8.146 7.4-9.819 18.468-8.753-2.415 1.28-3.628 2.486-4.817 2.462-7.713-.152-9.854 5.58-12.254 11.145-.628 1.456-1.397 2.852-2.101 4.276l-2.148-.796 2.851-8.334z"/><path fill="#56432e" d="M73.874 51.94c.3 2.789-.867 4.361-3.793 3.949-6.441-.908-11.399 1.476-15.006 6.842-2.225-2.846-.02-7.77 4.036-8.606 4.615-.952 9.403-1.066 14.473-1.839.358-.296.296-.313.29-.345z"/><path fill="#462d0f" d="M141.091 116.228c.672 6.043-3.122 9.42-7.774 12.554-.408-1.536-.493-3.149-.601-5.221 6.46-1.458 7.6-5.923 6.271-11.995.638.604 1.277 1.208 1.967 2.494l.137 2.167z"/><path fill="#483019" d="M141.387 116.162c-.324-.429-.352-.924-.382-1.791.625.128 1.253.627 1.88 1.461-.401.31-.801.287-1.498.33z"/><path fill="#e8dea1" d="M115.23 127.574c-.587-.206-1.326-.694-2.08-1.557.633.175 1.28.725 2.08 1.557z"/><path fill="#523f24" d="M254.315 112.896c-.191-.061-.25-.225-.248-.643.427-.077.532.188.248.643z"/></svg>