<svg version="1.1" id="Layer_1" xmlns="http://www.w3.org/2000/svg" xmlns:xlink="http://www.w3.org/1999/xlink" x="0px" y="0px"
	 width="100%" viewBox="0 0 225 225" enable-background="new 0 0 225 225" xml:space="preserve">
<path fill="#1A1A1B" opacity="1.000000" stroke="none" 
	d="
M108.986412,83.011177 
	C116.430893,80.360924 127.673553,84.692375 131.884720,91.634346 
	C137.080536,100.199478 141.798126,109.168945 147.943451,117.006218 
	C152.522705,122.846260 158.723953,127.597031 164.778030,132.051071 
	C172.068771,137.414917 180.984802,141.070938 184.242447,150.411133 
	C188.278137,161.982101 186.105515,172.965546 179.781113,183.257401 
	C171.129364,197.336578 150.733002,201.705978 137.380829,193.216248 
	C130.849228,189.063278 124.163620,185.726868 116.509575,184.720352 
	C113.801567,184.364243 110.649269,184.169632 108.261879,185.201584 
	C101.370148,188.180542 94.590599,191.522034 88.099243,195.293091 
	C82.456375,198.571243 69.203827,198.746979 63.436199,194.822464 
	C58.973454,191.785828 54.282860,188.992706 50.219627,185.482407 
	C44.577675,180.608170 41.631035,174.237061 41.989029,166.561188 
	C42.113018,163.902649 42.305614,161.194794 41.957146,158.577316 
	C41.144909,152.476318 43.752380,147.720276 47.963436,143.969986 
	C53.827454,138.747589 60.061310,133.927811 66.273804,129.112381 
	C75.384560,122.050415 83.009438,113.787537 88.459633,103.534294 
	C93.073517,94.854362 97.831543,86.187408 108.685997,83.091179 
	C109.056946,83.007446 108.986412,83.011177 108.986412,83.011177 
z"/>
<path fill="#1A1A1B" opacity="1.000000" stroke="none" 
	d="
M29.614113,96.473106 
	C28.280918,81.256561 35.528072,71.766212 49.321636,70.142159 
	C56.395302,69.309296 67.006752,76.222008 71.103531,84.334061 
	C74.191605,90.448738 74.820084,96.761475 73.817337,103.594299 
	C73.051468,108.813019 73.040016,113.794373 68.988205,118.075584 
	C62.124634,125.327744 48.637840,126.439026 40.809368,120.021561 
	C33.465538,114.001381 30.833767,105.833771 29.614113,96.473106 
z"/>
<path fill="#1A1A1B" opacity="1.000000" stroke="none" 
	d="
M94.085266,83.735962 
	C85.381195,85.556923 78.544327,81.961159 73.193382,75.697014 
	C65.845459,67.095062 66.262024,57.195415 67.248856,47.476688 
	C68.916039,31.057732 86.930107,23.137407 99.446709,33.784607 
	C113.661491,45.876347 117.212906,70.299156 98.628540,82.704720 
	C97.505486,83.454391 95.844025,83.397484 94.085266,83.735962 
z"/>
<path fill="#1A1A1A" opacity="1.000000" stroke="none" 
	d="
M178.276093,70.440453 
	C187.651901,70.562317 192.211670,75.619705 195.850418,83.553650 
	C202.064499,97.102913 194.677338,112.177116 186.055771,120.010406 
	C178.558517,126.822128 161.031662,125.481697 156.772522,117.021935 
	C151.992554,107.527657 151.373718,97.224693 155.720673,86.865402 
	C158.403137,80.472778 162.147507,75.382706 168.516403,72.691582 
	C171.443512,71.454773 174.760254,71.140007 178.276093,70.440453 
z"/>
<path fill="#1A1B1B" opacity="1.000000" stroke="none" 
	d="
M157.074661,41.088474 
	C162.004135,49.499752 160.962341,58.420013 158.352554,67.018570 
	C157.071869,71.238098 154.176086,75.275810 151.130508,78.585289 
	C145.289963,84.931923 137.368637,85.632408 129.888229,82.882828 
	C122.333878,80.106071 117.283829,74.921494 116.632439,65.593285 
	C115.735909,52.754459 117.260796,41.512844 128.441330,33.354649 
	C134.606033,28.856392 141.342499,27.509090 147.954514,31.201614 
	C151.453369,33.155567 153.810516,37.153889 156.760666,40.597092 
	C156.838226,40.964916 157.074661,41.088474 157.074661,41.088474 
z"/>
<path fill="#000000" opacity="1.000000" stroke="none" 
	d="
M108.992081,83.005219 
	C108.986412,83.011177 109.056946,83.007446 109.033188,82.998077 
	C109.009430,82.988716 108.997757,82.999260 108.992081,83.005219 
z"/>
<path fill="#000000" opacity="1.000000" stroke="none" 
	d="
M157.018494,41.034943 
	C157.074661,41.088474 156.838226,40.964916 156.844849,40.918884 
	C156.851456,40.872856 156.962341,40.981407 157.018494,41.034943 
z"/>
</svg>